<?xml version="1.0" encoding="UTF-8" standalone="no"?>
<svg
   xmlns:dc="http://purl.org/dc/elements/1.1/"
   xmlns:cc="http://creativecommons.org/ns#"
   xmlns:rdf="http://www.w3.org/1999/02/22-rdf-syntax-ns#"
   xmlns:svg="http://www.w3.org/2000/svg"
   xmlns="http://www.w3.org/2000/svg"
   xmlns:sodipodi="http://sodipodi.sourceforge.net/DTD/sodipodi-0.dtd"
   xmlns:inkscape="http://www.inkscape.org/namespaces/inkscape"
   id="Layer_1"
   viewBox="0 0 426.4 82.5"
   width="2500"
   height="484"
   version="1.1"
   sodipodi:docname="face.svg"
   inkscape:export-filename="/home/yamil/yami22/boot/face.svg.png"
   inkscape:export-xdpi="96"
   inkscape:export-ydpi="96"
   inkscape:version="1.0.2 (e86c870879, 2021-01-15)">
  <metadata
     id="metadata20">
    <rdf:RDF>
      <cc:Work
         rdf:about="">
        <dc:format>image/svg+xml</dc:format>
        <dc:type
           rdf:resource="http://purl.org/dc/dcmitype/StillImage" />
        <dc:title>facebook</dc:title>
      </cc:Work>
    </rdf:RDF>
  </metadata>
  <defs
     id="defs18" />
  <sodipodi:namedview
     pagecolor="#ffffff"
     bordercolor="#666666"
     borderopacity="1"
     objecttolerance="10"
     gridtolerance="10"
     guidetolerance="10"
     inkscape:pageopacity="0"
     inkscape:pageshadow="2"
     inkscape:window-width="1366"
     inkscape:window-height="704"
     id="namedview16"
     showgrid="false"
     inkscape:zoom="0.2334"
     inkscape:cx="1358.7314"
     inkscape:cy="242"
     inkscape:window-x="0"
     inkscape:window-y="27"
     inkscape:window-maximized="1"
     inkscape:current-layer="Layer_1"
     inkscape:document-rotation="0" />
  <style
     id="style2">.st0{fill:#004f9d}</style>
  <title
     id="title4">facebook</title>
  <g
     id="_Group_"
     style="fill:#ffffff"
     inkscape:export-xdpi="96"
     inkscape:export-ydpi="96"
     transform="matrix(0.99821234,0,0,0.96753999,0.44661975,1.8139573)">
    <path
       id="_Path_"
       class="st0"
       d="m 33.4,13 c -5,0 -6.5,2.2 -6.5,7.1 v 8.1 H 40.3 L 39,41.4 H 26.9 V 81.3 H 10.8 V 41.4 H 0 V 28.3 H 10.8 V 20.4 C 10.8,7 16.2,0 31.1,0 c 3.1,0 6.3,0.2 9.4,0.6 V 13"
       style="fill:#ffffff" />
    <path
       id="_Compound_Path_"
       class="st0"
       d="m 41.4,53.1 c 0,-14.8 7,-26 21.8,-26 8,0 12.9,4.1 15.3,9.3 V 28.3 H 93.9 V 81.4 H 78.4 v -8 c -2.2,5.1 -7.3,9.1 -15.3,9.1 -14.7,0 -21.8,-11.1 -21.8,-26 m 16.2,0.2 c 0,7.9 2.9,13.2 10.4,13.2 6.6,0 9.9,-4.8 9.9,-12.4 v -5.4 c 0,-7.6 -3.4,-12.4 -9.9,-12.4 -7.5,0 -10.4,5.2 -10.4,13.2 z"
       style="fill:#ffffff" />
    <path
       id="_Path_2"
       class="st0"
       d="m 127.3,27.1 c 6.2,0 12.2,1.3 15.4,3.6 l -3.6,11.4 c -3.3,-1.6 -7,-2.4 -10.7,-2.4 -8.7,0 -12.5,5 -12.5,13.6 v 3.1 c 0,8.6 3.8,13.6 12.5,13.6 3.7,0 7.4,-0.9 10.7,-2.5 l 3.6,11.4 c -3.2,2.2 -9.1,3.6 -15.4,3.6 -18.9,0 -27.4,-10.1 -27.4,-26.4 v -2.5 c 0,-16.3 8.5,-26.5 27.4,-26.5"
       style="fill:#ffffff" />
    <path
       id="_Compound_Path_2"
       class="st0"
       d="m 144.8,56.8 v -4.7 c 0,-15.1 8.6,-25 26.1,-25 16.5,0 23.8,10 23.8,24.8 v 8.5 h -33.8 c 0.3,7.3 3.6,10.5 12.5,10.5 5.8,0 11.6,-1.1 17.1,-3.2 l 2.9,11 c -4.2,2.2 -12.9,3.9 -20.6,3.9 -20.4,-0.1 -28,-10.2 -28,-25.8 m 16.1,-7 h 19.4 v -1.3 c 0,-5.8 -2.3,-10.4 -9.4,-10.4 -7.2,0 -10,4.6 -10,11.7"
       style="fill:#ffffff" />
    <path
       id="_Compound_Path_3"
       class="st0"
       d="m 254.3,56.5 c 0,14.8 -7.1,26 -21.9,26 -8,0 -13.6,-4 -15.8,-9.1 v 8 H 201.4 V 1.6 l 16.1,-1.4 v 35.5 c 2.3,-4.7 7.5,-8.5 15,-8.5 14.7,0 21.9,11.1 21.9,26 m -16.2,-0.4 c 0,-7.5 -2.9,-13.1 -10.6,-13.1 -6.6,0 -10.1,4.7 -10.1,12.3 v 5.6 c 0,7.6 3.6,12.3 10.1,12.3 7.7,0 10.6,-5.6 10.6,-13.1 z"
       style="fill:#ffffff" />
    <path
       id="_Compound_Path_4"
       class="st0"
       d="m 259.6,56.1 v -2.7 c 0,-15.3 8.7,-26.3 26.4,-26.3 17.7,0 26.4,11 26.4,26.3 v 2.7 c 0,15.3 -8.7,26.3 -26.4,26.3 -17.7,0 -26.4,-10.9 -26.4,-26.3 m 36.8,-3.8 c 0,-7 -2.9,-12.6 -10.4,-12.6 -7.5,0 -10.4,5.6 -10.4,12.6 v 5 c 0,7 2.9,12.6 10.4,12.6 7.5,0 10.4,-5.6 10.4,-12.6 z"
       style="fill:#ffffff" />
    <path
       id="_Compound_Path_5"
       class="st0"
       d="m 317.9,56.1 v -2.7 c 0,-15.3 8.7,-26.3 26.4,-26.3 17.7,0 26.4,11 26.4,26.3 v 2.7 c 0,15.3 -8.7,26.3 -26.4,26.3 -17.7,0 -26.4,-10.9 -26.4,-26.3 m 36.8,-3.8 c 0,-7 -2.9,-12.6 -10.4,-12.6 -7.5,0 -10.4,5.6 -10.4,12.6 v 5 c 0,7 2.9,12.6 10.4,12.6 7.5,0 10.4,-5.6 10.4,-12.6 z"
       style="fill:#ffffff" />
    <path
       id="_Path_3"
       class="st0"
       d="m 392.8,53.6 15.9,-25.4 h 17 l -16.6,26.3 17.3,26.9 h -17.1 l -16.5,-26 v 26 h -16 V 1.6 l 16,-1.5"
       style="fill:#ffffff" />
  </g>
</svg>
