<?xml version="1.0" encoding="UTF-8" standalone="no"?>
<svg
   xmlns:dc="http://purl.org/dc/elements/1.1/"
   xmlns:cc="http://creativecommons.org/ns#"
   xmlns:rdf="http://www.w3.org/1999/02/22-rdf-syntax-ns#"
   xmlns:svg="http://www.w3.org/2000/svg"
   xmlns="http://www.w3.org/2000/svg"
   xmlns:xlink="http://www.w3.org/1999/xlink"
   xmlns:sodipodi="http://sodipodi.sourceforge.net/DTD/sodipodi-0.dtd"
   xmlns:inkscape="http://www.inkscape.org/namespaces/inkscape"
   version="1.1"
   id="layer"
   x="0px"
   y="0px"
   viewBox="0 0 3779.5276 944.8819"
   xml:space="preserve"
   sodipodi:docname="discogs.svg"
   inkscape:version="1.0.2 (e86c870879, 2021-01-15)"
   width="1000mm"
   height="250mm"><metadata
   id="metadata277"><rdf:RDF><cc:Work
       rdf:about=""><dc:format>image/svg+xml</dc:format><dc:type
         rdf:resource="http://purl.org/dc/dcmitype/StillImage" /><dc:title></dc:title></cc:Work></rdf:RDF></metadata><defs
   id="defs275" /><sodipodi:namedview
   pagecolor="#ffffff"
   bordercolor="#666666"
   borderopacity="1"
   objecttolerance="10"
   gridtolerance="10"
   guidetolerance="10"
   inkscape:pageopacity="0"
   inkscape:pageshadow="2"
   inkscape:window-width="1366"
   inkscape:window-height="704"
   id="namedview273"
   showgrid="false"
   inkscape:zoom="0.14749467"
   inkscape:cx="1816.5162"
   inkscape:cy="326"
   inkscape:window-x="0"
   inkscape:window-y="27"
   inkscape:window-maximized="1"
   inkscape:current-layer="layer"
   inkscape:document-rotation="0"
   units="mm" />
<style
   type="text/css"
   id="style2">
	.st0{fill:#FFFFFF;}
	.st1{clip-path:url(#SVGID_2_);fill:#FFFFFF;}
	.st2{clip-path:url(#SVGID_4_);fill:#FFFFFF;}
	.st3{clip-path:url(#SVGID_6_);fill:#FFFFFF;}
	.st4{clip-path:url(#SVGID_8_);fill:#FFFFFF;}
	.st5{clip-path:url(#SVGID_10_);fill:#FFFFFF;}
	.st6{clip-path:url(#SVGID_12_);fill:#FFFFFF;}
	.st7{clip-path:url(#SVGID_14_);fill:#FFFFFF;}
	.st8{clip-path:url(#SVGID_16_);fill:#FFFFFF;}
	.st9{clip-path:url(#SVGID_18_);fill:#FFFFFF;}
	.st10{clip-path:url(#SVGID_20_);fill:#FFFFFF;}
	.st11{clip-path:url(#SVGID_22_);fill:#FFFFFF;}
	.st12{clip-path:url(#SVGID_24_);fill:#FFFFFF;}
	.st13{clip-path:url(#SVGID_26_);fill:#FFFFFF;}
	.st14{clip-path:url(#SVGID_28_);fill:#FFFFFF;}
	.st15{clip-path:url(#SVGID_30_);fill:#FFFFFF;}
</style>



































































<g
   id="g1297"
   transform="matrix(3.4229663,0,0,3.649613,-3248.3581,-1039.5749)"
   style="fill:#ffffff"><rect
     x="1188.358"
     y="335.86926"
     class="st0"
     width="56.315414"
     height="36.099689"
     id="rect6"
     style="fill:#ffffff;stroke-width:1.54267" /><path
     class="st0"
     d="m 1067.9467,335.74079 h -59.2794 v 206.32065 h 69.8385 c 36.4939,0 62.0581,-7.45118 76.6927,-22.482 14.6346,-14.90238 21.8593,-42.13775 21.8593,-81.70605 0,-38.79755 -7.2247,-65.51905 -21.8593,-80.16445 -14.6346,-14.64545 -43.7185,-21.96815 -87.2518,-21.96815 m 39.2726,173.56115 c -5.187,6.93733 -14.6346,10.2775 -28.1577,10.2775 h -10.5592 V 358.35126 h 10.5592 c 13.7083,0 22.9707,5.78108 28.1577,17.47176 5.1869,11.69062 7.7804,33.01645 7.7804,64.10587 0,39.43985 -2.5935,62.43575 -7.7804,69.37305"
     id="path8"
     style="fill:#ffffff;stroke-width:1.54267" /><rect
     x="1188.358"
     y="384.04498"
     class="st0"
     width="56.315414"
     height="158.01646"
     id="rect10"
     style="fill:#ffffff;stroke-width:1.54267" /><path
     class="st0"
     d="m 1338.7794,452.90419 c -17.7839,-10.79135 -28.5282,-18.24255 -32.048,-22.35355 -3.5197,-3.9825 -5.1869,-8.22198 -5.1869,-12.5899 0,-3.59712 1.482,-6.29497 4.446,-8.222 2.9639,-1.92705 6.8541,-2.8263 11.3001,-2.8263 5.3722,0 9.6329,1.54163 12.7821,4.3679 2.964,2.9548 4.6312,6.80885 4.6312,11.43373 h 44.83 c 0,-13.10381 -5.3722,-23.12438 -15.9313,-30.19013 -10.7444,-7.06577 -26.12,-10.66292 -46.312,-10.66292 -18.8953,0 -34.0857,3.46867 -45.7563,10.27749 -11.4854,6.93733 -17.4133,16.18708 -17.4133,27.74926 0,11.17674 2.223,20.55497 6.8542,28.13465 4.6312,7.57964 15.5608,16.57242 32.6036,26.84992 13.5231,8.09355 23.156,14.26 29.2692,18.75643 5.928,4.36792 8.8919,8.47892 8.8919,12.20452 0,4.111 -1.4819,7.19422 -4.2607,9.24973 -2.7787,2.0555 -7.0394,3.08327 -12.7821,3.08327 -5.9279,0 -10.3739,-1.2847 -13.3378,-3.85405 -2.964,-2.5694 -4.446,-6.80885 -4.446,-12.46147 h -45.571 c 0,13.87462 5.3722,24.40904 16.3018,31.34635 10.9296,6.9373 27.0462,10.40597 48.535,10.40597 20.0068,0 35.7529,-3.72562 47.2383,-11.1768 11.4853,-7.45117 17.228,-17.85715 17.228,-31.21788 0,-8.6074 -2.9639,-16.44397 -9.0771,-23.38129 -6.1132,-7.06578 -17.0428,-15.41623 -32.7889,-24.92293"
     id="path12"
     style="fill:#ffffff;stroke-width:1.54267" /><path
     class="st0"
     d="m 1999.9297,477.69864 c -6.1132,-6.9373 -17.0428,-15.28775 -32.7889,-24.79445 -17.7838,-10.79135 -28.5282,-18.24255 -32.0479,-22.35355 -3.5197,-3.9825 -5.1869,-8.22198 -5.1869,-12.5899 0,-3.59712 1.4819,-6.29497 4.4459,-8.222 2.964,-1.92705 6.8542,-2.8263 11.3001,-2.8263 5.3722,0 9.6329,1.41315 12.7822,4.3679 2.9639,2.9548 4.6312,6.80885 4.6312,11.43373 h 44.83 c 0,-13.10381 -5.3722,-23.12438 -16.1166,-30.19013 -10.7444,-7.06577 -26.12,-10.66292 -46.312,-10.66292 -18.8953,0 -34.0856,3.46867 -45.7563,10.27749 -11.4854,6.93733 -17.4133,16.18708 -17.4133,27.74926 0,11.17674 2.223,20.55497 6.8542,28.13465 4.6312,7.57964 15.3756,16.57242 32.6036,26.84992 13.5232,8.09355 23.1561,14.26 29.084,18.75643 5.9279,4.36792 8.8919,8.47892 8.8919,12.20452 0,4.111 -1.482,7.19422 -4.2607,9.12127 -2.7787,2.05551 -7.0394,3.08325 -12.7821,3.08325 -5.928,0 -10.3739,-1.2847 -13.3379,-3.85405 -2.964,-2.56937 -4.4459,-6.80884 -4.4459,-12.46147 h -45.5711 c 0,13.87462 5.3722,24.40905 16.3019,31.34635 10.9296,6.9373 27.0462,10.40598 48.535,10.40598 20.0068,0 35.7528,-3.7256 47.2382,-11.17681 11.4854,-7.45117 17.2281,-17.85715 17.2281,-31.21787 0.3705,-8.60737 -2.5935,-16.44397 -8.7067,-23.3813"
     id="path14"
     style="fill:#ffffff;stroke-width:1.54267" /><g
     id="g28"
     style="fill:#ffffff"
     transform="matrix(1.8524807,0,0,1.2846865,916.04331,47.970991)">
	<defs
   id="defs17">
		<path
   id="SVGID_1_"
   d="m 376.8,390.3 c -0.1,0.1 -0.2,0.2 -0.4,0.2 0.1,-0.1 0.3,-0.2 0.5,-0.3 0,0.1 0,0.1 -0.1,0.1 m 0,-3.1 c 0,0 0,0 0,0 0,0 0,0 0,0 m 0,0 c -0.1,0 -0.1,-0.1 0,0 -0.1,-0.1 -0.1,0 0,0 m -1.1,-125.7 c -34.4,0.1 -62.3,27.7 -62.7,62.1 v 0.6 c 0.1,34.6 28.1,62.6 62.7,62.7 34.6,0 62.7,-28.1 62.7,-62.7 0,-34.3 -27.5,-62.1 -61.6,-62.7 z m 0,0 c -0.2,0 -0.4,0 -0.6,-0.1 0.3,0.1 0.5,0.1 0.6,0.1 m -1.4,-0.6 c -0.1,-0.1 -0.2,-0.2 -0.2,-0.3 0,0.2 0.1,0.3 0.2,0.3" />
	</defs>
	<clipPath
   id="SVGID_2_">
		<use
   xlink:href="#SVGID_1_"
   style="overflow:visible"
   id="use19"
   x="0"
   y="0"
   width="100%"
   height="100%" />
	</clipPath>
	<path
   class="st1"
   d="m 375.7,258.1 c -36.5,0 -66.1,29.6 -66.1,66.1 0,36.5 29.6,66.1 66.1,66.1 36.5,0 66.1,-29.6 66.1,-66.1 0,-36.5 -29.6,-66.1 -66.1,-66.1 m 57.8,46.4 c 0,0.1 -0.1,0.1 -0.2,0.2 -0.1,0 -0.2,0 -0.2,-0.1 0,-0.1 0.1,-0.2 0.2,-0.2 0.1,-0.1 0.2,0 0.2,0.1 m -1,-8.8 c -0.2,0 -0.3,-0.1 -0.3,-0.2 -0.1,-0.1 -0.1,-0.1 -0.2,-0.3 0,-0.1 0.1,-0.2 0.2,-0.3 0.1,-0.1 0.2,-0.2 0.3,-0.2 0.3,0 0.4,0.2 0.4,0.4 0,0.4 -0.1,0.6 -0.4,0.6 m 0.2,4.7 c 0,0.1 -0.1,0.2 -0.2,0.3 -0.1,0 -0.2,-0.1 -0.2,-0.2 0,-0.1 0.1,-0.2 0.2,-0.2 0.1,-0.1 0.2,0 0.2,0.1 m -1.7,6.4 c 0,0.1 -0.1,0.1 -0.2,0.1 -0.1,0 -0.2,0 -0.2,-0.1 0,-0.1 0.1,-0.2 0.2,-0.2 0.1,0 0.2,0.1 0.2,0.2 m -1.1,-8.5 c -0.2,0 -0.3,-0.1 -0.4,-0.2 -0.1,-0.1 -0.1,-0.1 -0.1,-0.3 0,0 0,0 0,0 v 0 c 0,0 0,0 0,-0.1 0,-0.1 0.1,-0.2 0.1,-0.3 0.1,-0.1 0.2,-0.2 0.3,-0.2 0.3,0 0.5,0.1 0.5,0.4 0.1,0.5 -0.1,0.7 -0.4,0.7 m 0.2,4.7 c 0,0.2 -0.1,0.3 -0.2,0.3 -0.2,0 -0.3,-0.1 -0.3,-0.3 0,-0.1 0.1,-0.2 0.2,-0.2 0.2,0 0.3,0 0.3,0.2 m -0.3,-9.7 c -0.4,0 -0.6,-0.3 -0.6,-0.7 0,-0.4 0.3,-0.7 0.7,-0.7 0.4,0 0.6,0.3 0.7,0.7 -0.2,0.5 -0.4,0.7 -0.8,0.7 m -54.1,88.1 c -0.1,0 -0.2,-0.1 -0.2,-0.2 0,-0.1 0.1,-0.2 0.2,-0.2 0.1,0 0.2,0.1 0.2,0.2 0,0.2 -0.1,0.2 -0.2,0.2 m 0,-3.6 c -5,0 -9.9,-0.7 -14.5,-2 0.1,0.2 0.2,0.3 0.2,0.5 0,0.5 -0.4,0.9 -0.9,1 -0.5,0 -1,-0.4 -1,-0.9 0,-0.4 0.3,-0.7 0.7,-0.9 -0.6,-0.2 -1.2,-0.4 -1.8,-0.6 -0.2,0.1 -0.3,0.2 -0.5,0.2 -0.5,0 -1,-0.3 -1.2,-0.8 -1.2,-0.5 -2.4,-0.9 -3.5,-1.5 0.5,0.2 0.9,0.7 0.9,1.3 0,0.8 -0.6,1.5 -1.5,1.5 -0.8,0 -1.4,-0.6 -1.5,-1.4 0,-0.8 0.6,-1.5 1.5,-1.5 0.2,0 0.4,0 0.6,0.1 -0.5,-0.3 -1.1,-0.5 -1.6,-0.8 -0.2,0.8 -0.9,1.4 -1.8,1.4 -1.1,-0.1 -1.7,-1 -1.5,-2.5 -0.4,0.1 -0.8,0.3 -1.3,0.3 -0.2,0 -0.3,0.1 -0.3,0.4 0,0.4 0,0.7 0,1.1 0.2,0 0.5,0 0.7,0 1,0 1.7,0.7 1.8,1.7 0,1 -0.6,1.7 -1.6,1.8 -1,0.1 -1.8,-0.6 -1.9,-1.6 0,-0.1 0,-0.3 0,-0.5 0,-0.2 0,-0.3 -0.3,-0.2 -0.1,0 -0.1,0 -0.2,0 -0.9,0.2 -1,0.3 -1,1.2 0,0.4 0.3,0.3 0.5,0.2 1,0 1.8,0.6 1.9,1.6 0.1,0.9 -0.6,1.7 -1.5,1.9 -0.4,0.1 -0.8,-0.1 -1.2,-0.2 0.1,0.4 0.3,0.7 0.3,1 0,0.5 -0.1,0.6 -0.6,0.4 -1.5,-0.8 -3,-1.8 -4.4,-2.8 -2.2,-1.5 -4.2,-3.2 -6.2,-5 -0.5,-0.5 -0.5,-0.8 0.1,-1.3 0.6,-0.5 1.3,-0.5 2.1,-0.2 -0.7,-2.1 0.3,-3.3 2.3,-2.9 0.1,-0.2 0,-0.3 -0.1,-0.5 -0.3,-1.3 0.6,-2.5 1.9,-2.3 0.6,0.1 0.6,-0.1 0.5,-0.6 0,-0.2 0,-0.4 0,-0.6 -0.2,-0.2 -0.4,-0.4 -0.7,-0.6 -0.1,0 -0.1,0.1 -0.2,0.1 -0.9,0 -1.7,-0.8 -1.7,-1.6 0,-0.1 0,-0.1 0,-0.2 -0.3,-0.3 -0.5,-0.6 -0.8,-0.9 0,0 -0.1,0 -0.1,0 -0.8,0 -1.5,-0.6 -1.5,-1.4 0,-0.1 0,-0.2 0.1,-0.3 -0.3,-0.4 -0.6,-0.7 -0.9,-1.1 -0.1,0 -0.2,0.1 -0.3,0.1 -0.7,0 -1.3,-0.4 -1.3,-1.1 0,-0.3 0.1,-0.6 0.2,-0.8 -0.3,-0.4 -0.6,-0.8 -1,-1.3 -0.2,0.3 -0.4,0.5 -0.7,0.5 -0.6,0 -1,-0.4 -1.1,-0.9 0,-0.5 0.3,-0.9 0.8,-1 -5.5,-8.4 -8.7,-18.5 -8.7,-29.3 0,-29.6 24,-53.6 53.6,-53.6 4.2,0 8.2,0.5 12.1,1.4 0,0 0,0 0,-0.1 0,-0.4 0.3,-0.7 0.7,-0.7 0.4,0 0.6,0.3 0.7,0.6 0,0.2 -0.1,0.3 -0.2,0.4 2.1,0.5 4.1,1.2 6.1,1.9 0.1,-0.5 0.6,-0.9 1.1,-0.9 0.6,0 1.2,0.5 1.2,1.2 0,0.2 -0.1,0.4 -0.2,0.6 0.4,0.2 0.9,0.4 1.3,0.6 0.1,0 0.2,-0.1 0.3,-0.1 0.5,0 1,0.3 1.3,0.8 0.8,0.4 1.6,0.8 2.3,1.3 -0.1,-0.2 -0.1,-0.5 -0.1,-0.7 0.1,-1 1,-1.7 1.9,-1.6 1.1,0.1 1.7,1.1 1.4,2.5 0.4,-0.1 0.8,-0.3 1.3,-0.2 0.2,0 0.3,-0.1 0.3,-0.4 0,-0.4 0,-0.7 0.1,-1.1 -0.2,0 -0.5,0 -0.7,0 -1,0 -1.7,-0.8 -1.7,-1.7 0,-1 0.7,-1.7 1.7,-1.7 1,0 1.8,0.7 1.8,1.7 0,0.2 0,0.3 0,0.5 0,0.2 0,0.3 0.3,0.3 0.1,0 0.1,0 0.2,0 0.9,-0.1 1,-0.2 1,-1.2 0,-0.4 -0.3,-0.3 -0.5,-0.3 -1,0 -1.8,-0.7 -1.9,-1.7 -0.1,-0.9 0.6,-1.7 1.6,-1.8 0.4,-0.1 0.8,0.1 1.2,0.2 -0.1,-0.4 -0.3,-0.7 -0.3,-1 0,-0.5 0.2,-0.6 0.6,-0.4 1.5,0.9 2.9,1.9 4.3,3 2.1,1.6 4.1,3.4 5.9,5.3 0.5,0.5 0.5,0.8 -0.1,1.2 -0.7,0.5 -1.4,0.5 -2.1,0.1 0.6,2.1 -0.4,3.2 -2.4,2.8 -0.1,0.2 0,0.3 0.1,0.5 0.3,1.3 -0.7,2.4 -2,2.2 -0.6,-0.1 -0.6,0 -0.5,0.5 0.1,0.5 -0.1,1 -0.3,1.3 0.1,0.1 0.1,0.1 0.2,0.2 0.3,-0.2 0.6,-0.3 1,-0.3 0.9,0 1.6,0.8 1.6,1.7 0,0.4 -0.2,0.7 -0.4,1 0.1,0.1 0.3,0.3 0.4,0.4 0.3,-0.2 0.5,-0.3 0.9,-0.3 0.8,0 1.4,0.7 1.4,1.5 0,0.4 -0.2,0.8 -0.5,1 0.2,0.3 0.4,0.6 0.6,0.9 0.2,-0.3 0.5,-0.5 0.9,-0.5 0.7,0 1.2,0.5 1.2,1.2 0,0.6 -0.3,1 -0.8,1.1 1.9,2.8 3.5,5.7 4.9,8.8 0.2,0.1 0.4,0.2 0.4,0.5 0,0.1 -0.1,0.1 -0.1,0.2 2.7,6.4 4.3,13.5 4.3,21 0,29.7 -24,53.7 -53.6,53.7 m -0.5,7.5 c 0,0.1 -0.1,0.2 -0.2,0.2 -0.1,0 -0.2,-0.1 -0.2,-0.2 0,-0.1 0.1,-0.2 0.2,-0.2 0.1,0 0.2,0.1 0.2,0.2 m -1.5,-7 c 0,0.1 -0.1,0.2 -0.2,0.2 -0.1,0 -0.2,-0.1 -0.2,-0.2 0,-0.1 0.1,-0.2 0.2,-0.2 0.2,0 0.2,0.1 0.2,0.2 m -0.5,5 c 0,0.1 -0.1,0.2 -0.2,0.2 -0.1,0 -0.2,-0.1 -0.2,-0.2 0,-0.1 0.1,-0.2 0.2,-0.2 0.2,-0.1 0.3,0 0.2,0.2 m -2.4,-2.3 c 0,-0.1 0.1,-0.2 0.2,-0.2 0.1,0 0.2,0.1 0.2,0.2 0,0.1 -0.1,0.2 -0.2,0.2 -0.1,0 -0.1,-0.1 -0.2,-0.2 m 0.2,4.5 c 0,0.1 -0.1,0.2 -0.2,0.2 -0.1,0 -0.2,-0.1 -0.2,-0.2 0,-0.1 0.1,-0.2 0.2,-0.2 0.2,0 0.2,0.1 0.2,0.2 m -2.4,-2 c 0.1,0 0.2,0.1 0.3,0.2 0,0.1 -0.1,0.2 -0.2,0.3 -0.1,0 -0.2,-0.1 -0.3,-0.2 0,-0.2 0,-0.3 0.2,-0.3 m -0.7,-4.9 c 0,-0.3 0.1,-0.5 0.4,-0.5 0.3,0 0.5,0.1 0.5,0.4 0,0.3 -0.1,0.4 -0.4,0.5 -0.3,0 -0.5,-0.2 -0.5,-0.4 m -1.8,7.6 c 0.1,0 0.3,0 0.3,0.2 0,0.2 0,0.3 -0.2,0.3 -0.2,0 -0.3,-0.1 -0.3,-0.2 0,-0.2 0.1,-0.3 0.2,-0.3 m -0.7,-4.9 c 0,-0.3 0.1,-0.5 0.4,-0.5 0.3,0 0.5,0.1 0.5,0.4 0,0.3 -0.1,0.5 -0.4,0.5 -0.2,0.1 -0.4,-0.1 -0.5,-0.4 m -2,2.2 c 0.3,0 0.5,0.2 0.5,0.5 0,0.3 -0.2,0.5 -0.5,0.5 -0.3,0 -0.5,-0.2 -0.5,-0.5 0.1,-0.3 0.2,-0.5 0.5,-0.5 m -0.9,-4.7 c 0,-0.5 0.3,-0.7 0.7,-0.7 0.4,0 0.7,0.2 0.7,0.7 0,0.4 -0.2,0.7 -0.7,0.7 -0.5,0 -0.7,-0.3 -0.7,-0.7 m -1.1,2.7 c 0,0.5 -0.3,0.7 -0.7,0.7 -0.4,0 -0.7,-0.2 -0.7,-0.7 0,-0.5 0.2,-0.7 0.7,-0.8 0.4,0.1 0.7,0.3 0.7,0.8 m -3.2,2 c 0.5,0 0.8,0.3 0.8,0.8 0,0.4 -0.3,0.7 -0.7,0.8 -0.5,0 -0.7,-0.3 -0.8,-0.7 0,-0.6 0.3,-0.9 0.7,-0.9 m -1.2,-4.4 c 0,-0.6 0.4,-1 1,-1 0.5,0 0.9,0.4 0.9,0.9 0,0.6 -0.4,1 -1,1 -0.5,0 -0.8,-0.4 -0.9,-0.9 m -1.5,1.6 c 0.5,0 1,0.5 1.1,1 0,0.5 -0.5,1.1 -1,1.1 -0.5,0 -1,-0.4 -1.1,-1 0,-0.5 0.5,-1 1,-1.1 m -1.4,-4.1 c 0,-0.7 0.5,-1.2 1.2,-1.2 0.7,0 1.2,0.5 1.2,1.2 0,0.7 -0.5,1.2 -1.2,1.2 -0.7,0 -1.2,-0.5 -1.2,-1.2 m -8,3 c 0,-0.8 0.7,-1.6 1.5,-1.6 0.8,0 1.6,0.7 1.6,1.5 0,0.8 -0.7,1.5 -1.5,1.6 -0.8,0 -1.6,-0.7 -1.6,-1.5 m 0.5,1.9 c -0.6,-0.2 -1.1,-0.3 -1.5,-0.8 0.7,-0.1 1.1,0.2 1.5,0.8 m 2,-4.6 c 0,-0.9 0.5,-1.5 1.4,-1.5 0.9,0 1.5,0.5 1.5,1.4 0.1,0.9 -0.5,1.5 -1.4,1.6 -0.8,-0.1 -1.4,-0.6 -1.5,-1.5 m 1.7,3.8 c 0.7,0 1.3,0.6 1.4,1.2 0,0.6 -0.5,1.3 -1.1,1.3 -0.7,0 -1.5,-0.6 -1.5,-1.2 -0.1,-0.6 0.5,-1.3 1.2,-1.3 m 1.3,-1.3 c -0.1,-0.7 0.5,-1.3 1.2,-1.3 0.7,0 1.2,0.5 1.3,1.2 0,0.7 -0.5,1.3 -1.2,1.3 -0.7,0 -1.3,-0.5 -1.3,-1.2 m 1.4,4 c 0.3,0 0.6,0.1 0.8,0.2 0.2,0.2 0.5,0.5 0.3,0.8 -0.1,0.3 -0.5,0 -0.7,0 -0.2,-0.1 -0.4,-0.1 -0.5,-0.2 -0.2,-0.1 -0.6,0 -0.5,-0.4 0,-0.3 0.3,-0.4 0.6,-0.4 m -24.7,-30.8 c -0.5,0 -0.7,-0.3 -0.7,-0.7 0,-0.4 0.3,-0.7 0.7,-0.7 0.4,0 0.7,0.3 0.7,0.7 -0.1,0.5 -0.3,0.7 -0.7,0.7 m 1.1,4.5 c 0,0.5 -0.4,1 -0.9,1 -0.5,0 -1,-0.4 -1,-0.9 0,-0.5 0.4,-1 0.9,-1 0.6,-0.1 1,0.3 1,0.9 m -0.8,4 c 0.6,0 1.2,0.5 1.2,1.2 0,0.6 -0.6,1.2 -1.2,1.2 -0.6,0 -1.2,-0.5 -1.2,-1.1 0,-0.7 0.6,-1.2 1.2,-1.3 m -0.1,5.1 c 0.1,0 0.2,0 0.3,0 0.7,0 1.1,0.3 1.3,0.8 0.2,0.5 0.2,1 -0.2,1.5 -0.3,0.3 -0.5,0.4 -0.8,0 -0.3,-0.4 -0.6,-0.7 -0.9,-1.1 -0.6,-0.6 -0.4,-1.1 0.3,-1.2 m 6.4,-1.6 c 0,-0.9 0.6,-1.7 1.5,-1.7 0.9,0 1.7,0.6 1.7,1.6 0,0.9 -0.6,1.6 -1.5,1.7 -0.9,0 -1.7,-0.7 -1.7,-1.6 m 0.7,2.6 c 0,0.9 -0.6,1.6 -1.5,1.7 -0.9,0 -1.6,-0.6 -1.7,-1.5 0,-0.9 0.6,-1.6 1.5,-1.7 1,-0.1 1.7,0.6 1.7,1.5 m -1.7,-3.7 c -0.8,0 -1.5,-0.7 -1.5,-1.4 0,-0.7 0.6,-1.4 1.4,-1.5 0.8,0 1.5,0.7 1.5,1.4 -0.1,0.7 -0.7,1.4 -1.4,1.5 m -2.7,-2.7 c -0.6,0 -1.2,-0.5 -1.2,-1.2 0,-0.6 0.5,-1.2 1.2,-1.2 0.6,0 1.2,0.5 1.2,1.2 0,0.6 -0.5,1.2 -1.2,1.2 m 0,2.6 c 0.7,-0.1 1.5,0.6 1.5,1.3 0.1,0.7 -0.6,1.5 -1.3,1.5 -0.7,0 -1.4,-0.6 -1.5,-1.3 0,-0.8 0.6,-1.5 1.3,-1.5 m -0.9,5.6 c 0.3,-0.4 0.7,-0.6 1.1,-0.6 0.8,0 1.4,0.3 1.6,1 0.2,0.6 0.1,1.3 -0.3,1.7 -0.3,0.3 -0.6,0.4 -0.9,0 -0.5,-0.5 -1,-1 -1.5,-1.5 -0.2,-0.2 -0.1,-0.4 0,-0.6 m -4.8,-20 c 0,0 0.1,0 0.1,0 0.2,0 0.4,0.1 0.4,0.4 0,0 0,0 0,0 0,0 0,0 0,0 0,0.1 -0.1,0.1 -0.1,0.2 0,0 0,0.1 0,0.1 -0.1,0.1 -0.2,0.2 -0.4,0.2 -0.3,0 -0.5,-0.2 -0.5,-0.5 -0.1,-0.2 0.1,-0.4 0.5,-0.4 m -0.4,-4.7 c 0,-0.1 0.1,-0.1 0.2,-0.2 0.1,0 0.2,0 0.2,0.1 0,0.1 -0.1,0.2 -0.2,0.2 -0.2,0.1 -0.2,0 -0.2,-0.1 m 1.3,10.3 c 0,0.4 -0.2,0.7 -0.6,0.8 -0.5,0 -0.8,-0.2 -0.8,-0.6 0,-0.4 0.2,-0.7 0.7,-0.7 0.5,-0.1 0.7,0.1 0.7,0.5 m -0.4,4.3 c 0.5,0 1,0.4 1,0.9 0,0.5 -0.4,0.9 -0.9,1 -0.5,0 -1,-0.4 -1,-0.9 0,-0.5 0.4,-1 0.9,-1 m 0.1,4.9 c 0.4,0 0.8,0.2 1,0.6 0.2,0.4 0.2,0.7 0,1.1 -0.1,0.2 -0.3,0.3 -0.5,0.1 -0.3,-0.4 -0.7,-0.8 -1,-1.2 -0.2,-0.3 0,-0.5 0.5,-0.6 m -3.2,-12 c 0.2,0 0.3,0 0.4,0.1 0.1,0.1 0.1,0.1 0.1,0.2 0,0 0,0 0,0 0,0 0,0 0,0 0,0 0,0 0,0.1 0,0.1 0,0.2 -0.1,0.3 -0.1,0.1 -0.2,0.2 -0.3,0.2 -0.3,0 -0.5,-0.1 -0.5,-0.4 0,-0.3 0.1,-0.5 0.4,-0.5 m -0.4,-4.7 c 0,-0.2 0,-0.3 0.2,-0.3 0.2,0 0.3,0.1 0.3,0.2 0,0.1 -0.1,0.2 -0.2,0.3 -0.2,0 -0.3,-0.1 -0.3,-0.2 m 0.8,9.6 c 0.4,0 0.6,0.2 0.7,0.6 0,0.4 -0.2,0.7 -0.7,0.7 -0.4,0 -0.6,-0.2 -0.7,-0.6 0.1,-0.4 0.3,-0.7 0.7,-0.7 m 1.1,5.7 c -0.4,0 -0.4,-0.3 -0.5,-0.5 0.3,0 0.4,0.2 0.5,0.5 m 100.2,-68.8 c -0.5,0 -0.9,-0.4 -0.9,-0.9 0,-0.5 0.4,-0.9 0.9,-0.9 0.5,0 0.9,0.4 0.9,0.9 0,0.5 -0.4,0.9 -0.9,0.9 m 0.7,4.3 c 0,0.4 -0.3,0.6 -0.7,0.7 -0.4,-0.1 -0.7,-0.3 -0.7,-0.8 0,-0.4 0.3,-0.7 0.7,-0.7 0.5,0.1 0.7,0.3 0.7,0.8 m -0.6,-9.2 c -0.6,0 -1.2,-0.6 -1.2,-1.2 0,-0.6 0.6,-1.1 1.2,-1.1 0.6,0 1.2,0.6 1.1,1.2 0.1,0.5 -0.5,1.1 -1.1,1.1 m 0.3,-5.1 c -0.1,0 -0.2,0 -0.3,0 -0.7,0 -1.1,-0.3 -1.3,-0.9 -0.2,-0.5 -0.1,-1 0.3,-1.4 0.3,-0.3 0.6,-0.4 0.8,0 0.3,0.4 0.6,0.7 0.9,1.1 0.5,0.7 0.4,1.1 -0.4,1.2 m -3,7.7 c -0.6,0 -1.2,-0.6 -1.2,-1.2 0,-0.6 0.6,-1.2 1.2,-1.2 0.6,0 1.2,0.6 1.2,1.2 0,0.6 -0.6,1.2 -1.2,1.2 m 1,3.9 c 0,0.6 -0.4,1 -1,1 -0.5,0 -1,-0.4 -1,-0.9 0,-0.6 0.4,-1 0.9,-1 0.6,0 1.1,0.4 1.1,0.9 m -4.4,-10.3 c 0,0.9 -0.7,1.6 -1.6,1.6 -0.9,0 -1.6,-0.7 -1.6,-1.7 0,-0.9 0.7,-1.6 1.6,-1.6 0.9,0 1.6,0.8 1.6,1.7 m -0.6,-2.6 c 0,-0.9 0.7,-1.6 1.6,-1.6 0.9,0 1.6,0.7 1.6,1.6 0,0.9 -0.7,1.6 -1.6,1.6 -1,0 -1.7,-0.7 -1.6,-1.6 m 1.6,3.7 c 0.8,0 1.5,0.7 1.4,1.5 0,0.7 -0.7,1.4 -1.4,1.4 -0.8,0 -1.4,-0.7 -1.4,-1.5 -0.1,-0.7 0.6,-1.4 1.4,-1.4 m 2.6,0.3 c -0.7,0 -1.4,-0.6 -1.4,-1.4 0,-0.7 0.6,-1.4 1.4,-1.4 0.7,0 1.4,0.7 1.4,1.4 -0.1,0.7 -0.7,1.4 -1.4,1.4 m 1.2,-5.6 c -0.3,0.4 -0.7,0.6 -1.1,0.6 -0.8,0 -1.3,-0.4 -1.6,-1 -0.2,-0.6 0,-1.3 0.4,-1.7 0.3,-0.3 0.6,-0.4 0.9,0 0.5,0.5 0.9,1 1.4,1.5 0.2,0.2 0.1,0.4 0,0.6 m -24.5,-10 c 0.7,0 1.2,0.5 1.1,1.2 0,0.7 -0.5,1.2 -1.3,1.2 -0.7,0 -1.2,-0.5 -1.1,-1.2 0,-0.7 0.5,-1.2 1.3,-1.2 m -1.1,-4 c 0,-0.5 0.5,-1 1,-1 0.5,0 1,0.5 1,1 0,0.5 -0.5,1 -1,1 -0.5,0 -1,-0.5 -1,-1 m 3.7,6.3 c 0.8,0 1.4,0.7 1.4,1.5 0,0.8 -0.7,1.5 -1.5,1.4 -0.8,0 -1.4,-0.7 -1.4,-1.5 -0.1,-0.7 0.6,-1.4 1.5,-1.4 m -0.1,-4.9 c 0.7,0 1.2,0.5 1.2,1.2 0,0.7 -0.6,1.3 -1.3,1.3 -0.7,0 -1.2,-0.6 -1.2,-1.2 0.1,-0.8 0.6,-1.3 1.3,-1.3 m -1,-3.9 c 0.2,-0.3 0.5,0 0.7,0.1 0.2,0.1 0.4,0.1 0.5,0.2 0.2,0.1 0.6,0.1 0.5,0.4 -0.1,0.3 -0.4,0.3 -0.6,0.4 -0.3,0 -0.6,-0.1 -0.8,-0.3 -0.2,-0.3 -0.5,-0.6 -0.3,-0.8 m 2.1,7.7 c 0,-0.9 0.6,-1.5 1.5,-1.5 0.9,0 1.5,0.6 1.4,1.5 0,0.9 -0.6,1.5 -1.5,1.5 -0.8,0 -1.4,-0.6 -1.4,-1.5 m 0.2,-5.2 c 0,-0.6 0.6,-1.3 1.2,-1.3 0.7,0 1.5,0.7 1.5,1.3 0,0.7 -0.7,1.3 -1.3,1.3 -0.8,0 -1.4,-0.6 -1.4,-1.3 m 2.3,2.6 c 0,-0.8 0.8,-1.5 1.6,-1.5 0.8,0 1.5,0.8 1.5,1.6 0,0.8 -0.7,1.5 -1.5,1.5 -0.9,0 -1.6,-0.8 -1.6,-1.6 m 2.7,-1.9 c 0.6,0.2 1,0.4 1.4,0.9 -0.6,0 -1,-0.3 -1.4,-0.9 m -11.4,1 c 0.5,0 0.9,0.4 0.9,1 0,0.6 -0.4,0.9 -1,0.9 -0.5,0 -0.9,-0.4 -0.9,-1 0,-0.6 0.4,-1 1,-0.9 m -0.9,-4.3 c 0,-0.4 0.3,-0.7 0.8,-0.7 0.5,0 0.7,0.3 0.8,0.8 -0.1,0.5 -0.3,0.8 -0.8,0.8 -0.5,-0.1 -0.8,-0.4 -0.8,-0.9 m -1.8,6.9 c 0.5,0 0.9,0.4 0.9,0.9 0,0.5 -0.4,0.9 -1,0.9 -0.5,0 -0.9,-0.4 -0.9,-0.9 0,-0.5 0.5,-0.9 1,-0.9 m -0.7,-4.3 c 0,-0.4 0.3,-0.7 0.8,-0.7 0.4,0 0.7,0.3 0.7,0.7 0,0.5 -0.3,0.7 -0.7,0.8 -0.5,-0.1 -0.8,-0.3 -0.8,-0.8 m -1.9,1.9 c 0.4,0 0.6,0.3 0.7,0.7 -0.1,0.4 -0.3,0.7 -0.7,0.7 -0.4,0 -0.7,-0.3 -0.7,-0.7 0.1,-0.4 0.3,-0.7 0.7,-0.7 m -0.5,-4.5 c 0,-0.3 0.2,-0.5 0.5,-0.5 0.3,0 0.4,0.2 0.5,0.5 -0.1,0.3 -0.2,0.5 -0.6,0.5 -0.2,0 -0.4,-0.2 -0.4,-0.5 m -2.1,2.2 c 0.3,0 0.5,0.1 0.5,0.4 0,0.3 -0.1,0.5 -0.4,0.5 -0.3,0 -0.5,-0.1 -0.5,-0.4 -0.1,-0.3 0.1,-0.5 0.4,-0.5 m -0.2,-4.7 c 0,-0.2 0.1,-0.3 0.2,-0.3 0.2,0 0.3,0.1 0.3,0.3 0,0.1 -0.1,0.2 -0.2,0.3 -0.2,-0.1 -0.3,-0.2 -0.3,-0.3 m -2.4,7.3 c 0.3,0 0.4,0.2 0.4,0.4 0,0.3 -0.2,0.4 -0.4,0.5 -0.3,0 -0.4,-0.2 -0.4,-0.4 0,-0.4 0.1,-0.5 0.4,-0.5 m -0.2,-4.8 c 0,-0.1 0.1,-0.2 0.2,-0.3 0.1,0 0.2,0.1 0.2,0.2 0,0.1 -0.1,0.2 -0.2,0.3 -0.1,0.1 -0.2,0 -0.2,-0.2 m -1.7,-1.8 c 0,0.1 -0.1,0.2 -0.2,0.2 -0.1,0 -0.2,-0.1 -0.2,-0.2 0,-0.1 0.1,-0.1 0.2,-0.1 0.2,-0.1 0.2,-0.1 0.2,0.1 m -0.4,4.4 c 0,0.1 -0.1,0.2 -0.3,0.2 -0.1,0 -0.2,-0.1 -0.2,-0.3 0,-0.1 0.1,-0.2 0.3,-0.2 0.1,0.1 0.2,0.2 0.2,0.3 m -1.9,-2.3 c 0,0.1 -0.1,0.2 -0.2,0.2 -0.1,0 -0.2,-0.1 -0.1,-0.2 0,-0.1 0.1,-0.1 0.2,-0.1 0,-0.1 0.1,0 0.1,0.1 m -0.8,4.9 c 0,0.1 -0.1,0.2 -0.2,0.2 -0.1,0 -0.2,-0.1 -0.2,-0.2 0,-0.1 0.1,-0.1 0.2,-0.1 0.2,-0.1 0.2,0 0.2,0.1 m -1.1,-7 c 0,0.1 -0.1,0.2 -0.2,0.2 -0.1,0 -0.2,-0.1 -0.2,-0.2 0,-0.1 0.1,-0.1 0.2,-0.1 0.2,-0.1 0.2,-0.1 0.2,0.1 m -1.1,3.8 c 0.1,0 0.2,0.1 0.2,0.2 0,0.1 -0.1,0.2 -0.2,0.2 -0.1,0 -0.2,-0.1 -0.2,-0.2 0,-0.2 0.1,-0.2 0.2,-0.2 m 48.6,34.8 c 0,0 0,0 0,0 -0.3,-0.1 -0.5,-0.2 -0.5,-0.5 0,0 0,0 0,0 0,0 0,0 0,0 0,-0.1 0.1,-0.1 0.1,-0.2 0,0 0,-0.1 0,-0.1 0.1,-0.1 0.2,-0.2 0.4,-0.2 0.3,0 0.5,0.2 0.5,0.5 0.1,0.3 -0.1,0.5 -0.5,0.5 m 0.2,4.7 c 0,0.1 -0.1,0.1 -0.2,0.2 -0.1,0 -0.2,0 -0.2,-0.1 0,-0.1 0.1,-0.2 0.2,-0.2 0.1,0 0.2,0 0.2,0.1 m -0.2,-9.7 c -0.4,0 -0.6,-0.2 -0.7,-0.6 0,-0.4 0.2,-0.7 0.6,-0.7 0.5,0 0.7,0.2 0.7,0.7 0.1,0.4 -0.2,0.6 -0.6,0.6 m 0,-4.9 c -0.5,0 -0.9,-0.4 -0.9,-0.9 0,-0.5 0.4,-0.9 0.9,-0.9 0.5,0 0.9,0.4 1,0.9 -0.1,0.5 -0.5,0.9 -1,0.9 m 0.1,-4.9 c -0.4,0 -0.8,-0.3 -1,-0.7 -0.2,-0.4 -0.2,-0.7 0,-1.1 0.1,-0.2 0.3,-0.3 0.5,0 0.3,0.4 0.7,0.8 1,1.3 0.2,0.2 0,0.5 -0.5,0.5 m 1.7,1.5 c 0.4,0 0.4,0.4 0.5,0.6 -0.4,-0.1 -0.4,-0.3 -0.5,-0.6 m -107.2,55.7 c 0,0.1 -0.1,0.2 -0.2,0.2 -0.1,0 -0.2,-0.1 -0.2,-0.2 0,-0.1 0.1,-0.1 0.2,-0.2 0.1,0.1 0.1,0.1 0.2,0.2 m -1.4,11.2 c 0.2,0 0.4,0.1 0.4,0.3 0,0 0.1,0 0.1,0.1 0,0.1 0,0.2 -0.1,0.3 -0.1,0.1 -0.2,0.2 -0.3,0.2 -0.3,0 -0.4,-0.1 -0.5,-0.4 0,-0.4 0.2,-0.5 0.4,-0.5 m -0.4,-4.8 c 0,-0.1 0.1,-0.2 0.2,-0.3 0.1,0 0.2,0.1 0.3,0.2 0,0.1 -0.1,0.2 -0.2,0.3 -0.2,0.1 -0.3,0 -0.3,-0.2 m -0.6,-4 c 0,0.1 -0.1,0.2 -0.2,0.2 -0.1,0 -0.2,-0.1 -0.2,-0.2 0,-0.1 0.1,-0.1 0.2,-0.2 0.1,0.1 0.2,0.1 0.2,0.2"
   clip-path="url(#SVGID_2_)"
   id="path22"
   style="fill:#ffffff" />
	<path
   class="st1"
   d="m 375.7,306.4 c -9.8,0 -17.8,8 -17.8,17.8 0,9.8 8,17.8 17.8,17.8 9.8,0 17.8,-7.9 17.8,-17.8 -0.1,-9.8 -8,-17.8 -17.8,-17.8 m 0,34.8 c -9.4,0 -17,-7.6 -17,-17 0,-9.4 7.6,-17 17,-17 9.4,0 17,7.6 17,17 0,9.4 -7.6,17 -17,17"
   clip-path="url(#SVGID_2_)"
   id="path24"
   style="fill:#ffffff" />
	<path
   class="st1"
   d="m 375.7,321.4 c -1.5,0 -2.8,1.3 -2.8,2.8 0,1.5 1.3,2.8 2.8,2.8 1.5,0 2.8,-1.2 2.8,-2.8 0,-1.6 -1.3,-2.8 -2.8,-2.8"
   clip-path="url(#SVGID_2_)"
   id="path26"
   style="fill:#ffffff" />
</g><path
     class="st0"
     d="m 1573.1182,509.43041 c 0.5557,0 0.9262,0.1285 1.6672,0.25706 -0.1852,-0.25706 -0.1852,-0.51388 -0.3705,-0.77083 0,-0.25705 -0.1852,-0.38537 -0.1852,-0.64233 0,-0.25705 -0.1852,-0.51387 -0.5557,-0.38539 -0.5558,0 -1.1115,-0.1285 -1.482,0.1285 -0.5557,0.3854 0,1.28469 0.9262,1.41315"
     id="path30"
     style="fill:#ffffff;stroke-width:1.54267" /><path
     class="st0"
     d="m 1572.0067,502.36464 c 0.5557,-0.1285 1.2967,0.1285 1.1115,-0.64235 0,-0.51387 -0.1852,-0.77083 -0.9263,-0.64235 -0.741,-0.1285 -1.1115,0 -1.1115,0.51388 0.1852,0.51387 0.1852,0.8993 0.9263,0.77082"
     id="path32"
     style="fill:#ffffff;stroke-width:1.54267" /><path
     class="st0"
     d="m 1659.0733,429.77984 c -0.3705,0 -0.741,0 -0.741,0.25707 0.1852,0.51386 -0.3705,1.02773 0,1.5416 0,0 0.1852,0 0.3705,0 0.9262,-0.25704 1.6672,0.1285 2.7787,0.25708 -0.5557,-0.77083 -0.741,-1.54162 -0.3705,-2.31245 -0.741,0.25705 -1.482,0.38543 -2.0377,0.25705"
     id="path34"
     style="fill:#ffffff;stroke-width:1.54267" /><path
     class="st0"
     d="m 1659.8143,423.48489 c -0.5558,0 -1.2968,-0.38542 -1.2968,0.51388 0,0.64234 0.3705,0.7708 1.2968,0.7708 0.1852,-0.1285 0.9262,0.38539 0.741,-0.25678 -0.1852,-0.3854 0.3705,-1.15622 -0.741,-1.02778"
     id="path36"
     style="fill:#ffffff;stroke-width:1.54267" /><path
     class="st0"
     d="m 1577.7494,497.99669 c 0,-0.64235 -0.5558,-0.25705 -0.9263,-0.3854 -0.3705,0.1285 -1.1115,-0.25705 -0.9262,0.3854 0.5557,0.25707 1.1115,0.5139 1.6672,0.77082 0.3705,0 0.1852,-0.3854 0.1852,-0.77082"
     id="path38"
     style="fill:#ffffff;stroke-width:1.54267" /><path
     class="st0"
     d="m 1659.4438,416.41911 c -1.2968,-0.1285 -1.2968,0 -1.1115,0.1285 0.3705,0.38536 -0.5558,1.15618 0.741,1.28466 0.3705,0 1.482,0.51387 1.482,-0.3854 -0.1852,-0.64233 0.1852,-1.28468 -1.1115,-1.02775"
     id="path40"
     style="fill:#ffffff;stroke-width:1.54267" /><path
     class="st0"
     d="m 1559.0393,511.99979 c 0,-1.15623 -1.482,-0.3854 -2.223,-0.77082 0.741,0.38542 -0.5557,1.41314 0.741,1.54162 0.741,0.1285 1.6673,0 1.482,-0.7708"
     id="path42"
     style="fill:#ffffff;stroke-width:1.54267" /><path
     class="st0"
     d="m 1581.6396,495.42731 c 0.5557,0.1285 0.9262,0.1285 0.741,-0.51387 0,-0.51385 -0.1852,-0.7708 -0.9263,-0.7708 -0.9262,0 -0.9262,0.25705 -1.1114,0.89927 0.1852,0.64235 0.7409,0.3854 1.2967,0.3854"
     id="path44"
     style="fill:#ffffff;stroke-width:1.54267" /><g
     id="g54"
     style="fill:#ffffff"
     transform="matrix(1.8524807,0,0,1.2846865,916.04331,47.970991)">
	<defs
   id="defs47">
		<path
   id="SVGID_3_"
   d="m 376.8,390.3 c -0.1,0.1 -0.2,0.2 -0.4,0.2 0.1,-0.1 0.3,-0.2 0.5,-0.3 0,0.1 0,0.1 -0.1,0.1 m 0,-3.1 c 0,0 0,0 0,0 0,0 0,0 0,0 m 0,0 c -0.1,0 -0.1,-0.1 0,0 -0.1,-0.1 -0.1,0 0,0 m -1.1,-125.7 c -34.4,0.1 -62.3,27.7 -62.7,62.1 v 0.6 c 0.1,34.6 28.1,62.6 62.7,62.7 34.6,0 62.7,-28.1 62.7,-62.7 0,-34.3 -27.5,-62.1 -61.6,-62.7 z m 0,0 c -0.2,0 -0.4,0 -0.6,-0.1 0.3,0.1 0.5,0.1 0.6,0.1 m -1.4,-0.6 c -0.1,-0.1 -0.2,-0.2 -0.2,-0.3 0,0.2 0.1,0.3 0.2,0.3" />
	</defs>
	<clipPath
   id="SVGID_4_">
		<use
   xlink:href="#SVGID_3_"
   style="overflow:visible"
   id="use49"
   x="0"
   y="0"
   width="100%"
   height="100%" />
	</clipPath>
	<path
   class="st2"
   d="m 358.7,343.1 c 0.9,0.2 0.7,-0.4 0.7,-0.8 -0.1,-0.7 -0.7,-0.4 -1,-0.3 -0.6,0.1 0,0.6 -0.1,1 -0.2,0.4 0.2,0.1 0.4,0.1"
   clip-path="url(#SVGID_4_)"
   id="path52"
   style="fill:#ffffff" />
</g><path
     class="st0"
     d="m 1640.178,437.74491 c 1.1115,0.25706 0.9262,-0.25707 0.9262,-0.77082 0,-0.89928 -0.9262,-0.5139 -1.482,-0.5139 -0.9262,-0.1285 -0.5557,0.38542 -0.5557,0.64237 -0.1852,0.64235 0.1852,0.89928 1.1115,0.64235"
     id="path56"
     style="fill:#ffffff;stroke-width:1.54267" /><path
     class="st0"
     d="m 1581.4543,502.49312 c 0.741,-0.1285 1.482,0.1285 2.5935,0.25704 -0.1852,-0.1285 -0.1852,-0.38537 -0.1852,-0.51385 -0.9262,-0.3854 -1.8525,-0.64234 -2.7787,-1.02775 0,0.1285 0,0.1285 0,0.25705 0,0.25706 0,0.51388 0,0.77083 -0.1852,0.25705 0,0.3854 0.3705,0.25705"
     id="path58"
     style="fill:#ffffff;stroke-width:1.54267" /><path
     class="st0"
     d="m 1583.4921,501.46534 c 0,-0.25705 0,-0.64233 0,-0.89925 -0.5558,0.1285 -1.1115,0.25705 -1.6673,0.25705 0.5558,0.1285 1.1115,0.38537 1.6673,0.64232"
     id="path60"
     style="fill:#ffffff;stroke-width:1.54267" /><path
     class="st0"
     d="m 1577.9346,505.96176 c 0.3705,0 0.741,0.1285 1.2968,0.1285 -0.1852,-0.51389 -0.1852,-0.89932 -0.3705,-1.2847 0,-0.25709 0.3705,-0.77082 -0.5558,-0.51387 -0.5557,0.1285 -1.6672,-0.38542 -1.8525,0.64233 0,0.77084 0.1852,1.15624 1.482,1.02775"
     id="path62"
     style="fill:#ffffff;stroke-width:1.54267" /><path
     class="st0"
     d="m 1663.8897,420.14469 c -1.1115,0 -0.5557,0.64232 -0.5557,0.89928 0.1852,0.64234 1.1115,0.38542 1.6672,0.38542 0.741,0.1285 0.1852,-0.38542 0.1852,-0.5139 0.5558,-1.1562 -0.5557,-0.7708 -1.2967,-0.7708"
     id="path64"
     style="fill:#ffffff;stroke-width:1.54267" /><path
     class="st0"
     d="m 1554.4081,521.89189 c -0.741,-0.1285 -0.9262,0.1285 -0.9262,0.6423 0,0.77083 0.741,0.5139 1.2967,0.5139 0.9263,0 0.741,-0.38542 0.741,-0.77083 -0.1852,-0.38537 -0.3705,-0.51385 -1.1115,-0.38537"
     id="path66"
     style="fill:#ffffff;stroke-width:1.54267" /><path
     class="st0"
     d="m 1660.7405,405.24231 c -0.1852,0 -0.1852,0 0,0 0.3705,0.1285 0.741,0.25708 1.1115,0.51388 -0.3705,-0.25705 -0.741,-0.3854 -1.1115,-0.51388"
     id="path68"
     style="fill:#ffffff;stroke-width:1.54267" /><g
     id="g78"
     style="fill:#ffffff"
     transform="matrix(1.8524807,0,0,1.2846865,916.04331,47.970991)">
	<defs
   id="defs71">
		<path
   id="SVGID_5_"
   d="m 376.8,390.3 c -0.1,0.1 -0.2,0.2 -0.4,0.2 0.1,-0.1 0.3,-0.2 0.5,-0.3 0,0.1 0,0.1 -0.1,0.1 m 0,-3.1 c 0,0 0,0 0,0 0,0 0,0 0,0 m 0,0 c -0.1,0 -0.1,-0.1 0,0 -0.1,-0.1 -0.1,0 0,0 m -1.1,-125.7 c -34.4,0.1 -62.3,27.7 -62.7,62.1 v 0.6 c 0.1,34.6 28.1,62.6 62.7,62.7 34.6,0 62.7,-28.1 62.7,-62.7 0,-34.3 -27.5,-62.1 -61.6,-62.7 z m 0,0 c -0.2,0 -0.4,0 -0.6,-0.1 0.3,0.1 0.5,0.1 0.6,0.1 m -1.4,-0.6 c -0.1,-0.1 -0.2,-0.2 -0.2,-0.3 0,0.2 0.1,0.3 0.2,0.3" />
	</defs>
	<clipPath
   id="SVGID_6_">
		<use
   xlink:href="#SVGID_5_"
   style="overflow:visible"
   id="use73"
   x="0"
   y="0"
   width="100%"
   height="100%" />
	</clipPath>
	<path
   class="st3"
   d="m 344.7,364.2 c 0,-0.5 0.1,-1 -0.6,-0.8 -0.6,0 -0.7,0 -0.6,0.2 0.2,0.3 -0.2,0.9 0.4,1 0.2,0 0.8,0.3 0.8,-0.4"
   clip-path="url(#SVGID_6_)"
   id="path76"
   style="fill:#ffffff" />
</g><path
     class="st0"
     d="m 1662.4077,408.06864 c -0.1852,0.25705 -0.1852,0.38543 -0.3704,0.64235 0.9262,-0.51388 1.8524,-0.77083 2.9639,-0.51388 0.3705,0 0.741,0 0.5558,-0.38542 0,-0.1285 0,-0.3854 0,-0.51388 -1.2968,-0.51385 -2.5935,-1.02772 -3.8902,-1.54162 0.9262,0.5139 1.2967,1.54162 0.7409,2.31245"
     id="path80"
     style="fill:#ffffff;stroke-width:1.54267" /><path
     class="st0"
     d="m 1559.5951,504.29167 c -0.741,0.1285 -1.2968,0.1285 -2.0378,0.1285 0.5558,0.38542 1.1115,0.77082 1.6673,1.02777 0.1852,-0.25705 0.1852,-0.64235 0.3705,-1.1562"
     id="path82"
     style="fill:#ffffff;stroke-width:1.54267" /><path
     class="st0"
     d="m 1586.6413,492.08714 c 0.9262,0.1285 0.5557,-0.3854 0.5557,-0.64235 0,-0.51385 -0.1852,-0.7708 -1.1115,-0.51385 -1.1114,-0.25705 -0.9262,0.25675 -0.9262,0.7708 0,0.64235 0.9262,0.25705 1.482,0.3854"
     id="path84"
     style="fill:#ffffff;stroke-width:1.54267" /><g
     id="g96"
     style="fill:#ffffff"
     transform="matrix(1.8524807,0,0,1.2846865,916.04331,47.970991)">
	<defs
   id="defs87">
		<path
   id="SVGID_7_"
   d="m 376.8,390.3 c -0.1,0.1 -0.2,0.2 -0.4,0.2 0.1,-0.1 0.3,-0.2 0.5,-0.3 0,0.1 0,0.1 -0.1,0.1 m 0,-3.1 c 0,0 0,0 0,0 0,0 0,0 0,0 m 0,0 c -0.1,0 -0.1,-0.1 0,0 -0.1,-0.1 -0.1,0 0,0 m -1.1,-125.7 c -34.4,0.1 -62.3,27.7 -62.7,62.1 v 0.6 c 0.1,34.6 28.1,62.6 62.7,62.7 34.6,0 62.7,-28.1 62.7,-62.7 0,-34.3 -27.5,-62.1 -61.6,-62.7 z m 0,0 c -0.2,0 -0.4,0 -0.6,-0.1 0.3,0.1 0.5,0.1 0.6,0.1 m -1.4,-0.6 c -0.1,-0.1 -0.2,-0.2 -0.2,-0.3 0,0.2 0.1,0.3 0.2,0.3" />
	</defs>
	<clipPath
   id="SVGID_8_">
		<use
   xlink:href="#SVGID_7_"
   style="overflow:visible"
   id="use89"
   x="0"
   y="0"
   width="100%"
   height="100%" />
	</clipPath>
	<path
   class="st4"
   d="m 347.2,356.9 c -2.4,-2.1 -4.5,-4.4 -6.4,-6.9 -0.6,-0.1 -1.1,-0.6 -1.1,-1.2 0,-0.1 0,-0.2 0,-0.3 -0.3,-0.5 -0.6,-1 -0.9,-1.4 -0.2,0.1 -0.3,0.2 -0.5,0.2 -0.6,0 -1.1,-0.4 -1.1,-1 0,-0.4 0.2,-0.7 0.6,-0.9 -3.5,-6.3 -5.6,-13.5 -5.6,-21.2 0,-24 19.4,-43.4 43.4,-43.4 2.6,0 5,0.3 7.5,0.7 0,0 0,0 0.1,0 0.1,0 0.1,0.1 0.2,0.1 1.4,0.2 2.7,0.6 4,0.9 0,-0.1 -0.1,-0.1 -0.1,-0.2 0,-0.6 0.5,-1.1 1.1,-1.1 0.6,0 1,0.5 1,1.1 0,0.3 -0.1,0.5 -0.3,0.7 0.5,0.2 1.1,0.4 1.6,0.6 0.1,0 0.1,0 0.2,0 0.4,0 0.8,0.2 1,0.5 0.9,0.4 1.8,0.8 2.6,1.2 0,-0.1 -0.1,-0.3 -0.1,-0.4 0,-0.9 0.7,-1.6 1.6,-1.5 0.9,0 1.6,0.7 1.6,1.6 0,0.7 -0.4,1.2 -0.9,1.5 0.1,0.1 0.2,0.1 0.3,0.2 0.1,-0.1 0.1,-0.2 0.2,-0.3 0.6,-0.7 1.3,-0.7 2.2,-0.5 -0.1,-0.8 -0.2,-1.5 0.4,-2.1 0.6,-0.6 1.3,-0.7 2.2,-0.5 -0.2,-0.8 -0.2,-1.5 0.3,-2.1 -0.5,0.2 -1,0.5 -1.5,0.3 -0.9,-0.3 -1.5,-1.2 -1.2,-2.1 0.3,-0.9 1.2,-1.4 2.1,-1.1 -0.6,-0.3 -1.1,-0.7 -1.7,-1 0,0.8 -0.7,1.4 -1.4,1.4 -0.8,0 -1.4,-0.7 -1.4,-1.4 0,-0.4 0.2,-0.8 0.6,-1.1 -0.4,-0.2 -0.7,-0.4 -1.1,-0.5 -0.2,0.1 -0.4,0.2 -0.6,0.2 -0.5,0 -1,-0.4 -1.1,-0.9 -3.7,-1.4 -7.5,-2.5 -11.5,-3.1 0,0.1 0.1,0.1 0.1,0.2 0,0.2 -0.1,0.4 -0.4,0.4 -0.2,0 -0.4,-0.1 -0.4,-0.4 0,-0.1 0,-0.2 0.1,-0.3 -2.4,-0.3 -4.8,-0.6 -7.3,-0.6 -14.7,0 -27.9,5.9 -37.5,15.6 -9.6,9.6 -15.6,22.9 -15.6,37.5 0,8 1.8,15.5 5,22.3 0.1,-0.1 0.2,-0.3 0.4,-0.3 0.3,0 0.5,0.2 0.5,0.5 0,0.3 -0.2,0.5 -0.5,0.5 0,0 0,0 -0.1,0 1.1,2.2 2.3,4.4 3.6,6.4 0.1,0.1 0.2,0.2 0.3,0.4 0.4,0.6 0.9,1.2 1.3,1.8 0.2,-0.1 0.3,-0.1 0.5,-0.1 0.7,0 1.2,0.4 1.3,1.2 0,0.4 -0.1,0.7 -0.3,0.9 0.2,0.3 0.5,0.5 0.7,0.8 0.3,-0.4 0.6,-0.6 1.1,-0.6 0.8,0 1.5,0.6 1.5,1.4 0,0.5 -0.3,1 -0.7,1.3 0.1,0.2 0.3,0.3 0.4,0.5 0.3,-0.5 0.8,-0.9 1.4,-0.9 0.9,0 1.7,0.8 1.7,1.7 0,0.6 -0.4,1.1 -0.9,1.4 0.1,0.1 0.2,0.2 0.3,0.2 0.3,-0.7 0.9,-1.1 1.8,-1 0.2,0 0.3,0 0.6,0 -0.2,-0.6 -0.2,-1.2 0,-1.8 -1.3,0.2 -2,0 -2.4,-0.8 -0.3,-0.7 -0.2,-1.5 0.3,-2 0.5,-0.5 1.4,-0.6 2,-0.3 0.7,0.4 1,1.1 0.7,2.3 0.6,-0.2 1.2,-0.3 1.9,0 -0.3,-0.8 -0.3,-1.4 0.1,-2.1 -0.5,0.2 -1,0.4 -1.6,0.2 -0.9,-0.3 -1.4,-1.3 -1.1,-2.1 0.3,-0.9 1.2,-1.4 2,-1.2 0.9,0.3 1.5,1.1 1.3,2.1 0,0.2 -0.1,0.3 -0.1,0.5 0.4,-0.3 0.9,-0.5 1.5,-0.4 0.1,-0.2 0.2,-0.2 0.2,-0.2 m 51.6,-76.3 c 0.9,0 1.7,0.8 1.6,1.7 0,0.9 -0.8,1.7 -1.7,1.6 -0.9,0 -1.7,-0.8 -1.6,-1.7 0,-0.8 0.8,-1.6 1.7,-1.6 m -2.6,-2.3 c 0.8,0 1.4,0.6 1.4,1.4 0,0.7 -0.6,1.4 -1.4,1.4 -0.8,0 -1.5,-0.6 -1.5,-1.4 0.1,-0.8 0.7,-1.4 1.5,-1.4 m -2.5,-2.4 c 0.6,0 1.1,0.6 1.1,1.2 0,0.6 -0.6,1.2 -1.2,1.1 -0.6,0 -1.2,-0.6 -1.2,-1.2 0.1,-0.6 0.6,-1.1 1.3,-1.1 m -0.1,5 c 0.8,0 1.4,0.5 1.4,1.3 0,0.8 -0.5,1.4 -1.3,1.4 -0.8,0 -1.4,-0.5 -1.4,-1.3 0,-0.8 0.5,-1.3 1.3,-1.4 m -2.6,-7.3 c 0.5,0 0.9,0.4 0.9,0.9 0,0.5 -0.4,0.9 -0.9,0.9 -0.5,0 -1,-0.4 -1,-0.9 0.1,-0.5 0.5,-0.9 1,-0.9 m 0,5 c 0.6,0 1.1,0.6 1.1,1.2 0,0.6 -0.6,1.1 -1.2,1.1 -0.6,0 -1.1,-0.6 -1.1,-1.2 0.1,-0.6 0.7,-1.2 1.2,-1.1 m -2.6,-2.4 c 0.4,0 0.9,0.4 0.9,0.9 0,0.5 -0.4,0.9 -0.9,0.9 -0.4,0 -0.9,-0.4 -0.9,-0.9 0,-0.5 0.5,-0.9 0.9,-0.9 m -2.6,-2.3 c 0.4,0 0.6,0.3 0.6,0.7 0,0.4 -0.3,0.6 -0.7,0.7 -0.4,-0.1 -0.6,-0.3 -0.6,-0.7 0.1,-0.5 0.3,-0.7 0.7,-0.7 m 0,4.9 c 0.5,0 0.9,0.4 0.9,0.8 0,0.5 -0.4,0.9 -0.8,0.9 -0.5,0 -0.9,-0.4 -0.9,-0.8 0,-0.5 0.3,-0.9 0.8,-0.9 m -2.5,-2.3 c 0.4,0 0.6,0.3 0.6,0.6 -0.1,0.4 -0.3,0.6 -0.6,0.6 -0.4,0 -0.7,-0.3 -0.6,-0.7 -0.1,-0.3 0.2,-0.5 0.6,-0.5 m -2.7,-2.4 c 0.2,0 0.4,0.2 0.4,0.4 0,0.2 -0.1,0.4 -0.3,0.4 -0.2,0 -0.4,-0.1 -0.4,-0.4 -0.1,-0.2 0.1,-0.4 0.3,-0.4 m 0.1,5 c 0.4,0 0.5,0.2 0.6,0.6 0,0.4 -0.2,0.6 -0.6,0.6 -0.4,0 -0.6,-0.2 -0.6,-0.6 0,-0.4 0.2,-0.6 0.6,-0.6 m -2.6,-7.4 c 0.1,0 0.2,0.1 0.2,0.2 0,0.1 -0.1,0.2 -0.2,0.2 -0.1,0 -0.2,-0.1 -0.2,-0.2 0,-0.1 0,-0.2 0.2,-0.2 m 0,5 c 0.2,0 0.4,0.2 0.3,0.4 0,0.2 -0.2,0.3 -0.3,0.4 -0.2,0 -0.4,-0.2 -0.4,-0.4 0,-0.2 0.1,-0.4 0.4,-0.4 m -50.5,65.4 c -0.1,0 -0.2,-0.1 -0.2,-0.2 0,-0.1 0.1,-0.1 0.2,-0.2 0.1,0 0.2,0 0.2,0.1 0,0.2 -0.1,0.3 -0.2,0.3 m 2.8,1.4 c 0.3,0 0.5,0.2 0.5,0.5 0,0.3 -0.2,0.5 -0.5,0.5 -0.3,0 -0.5,-0.2 -0.6,-0.5 0.1,-0.3 0.3,-0.5 0.6,-0.5 m 0.3,6.5 c -0.5,0 -0.7,-0.3 -0.8,-0.7 0.1,-0.5 0.3,-0.8 0.8,-0.8 0.5,0 0.8,0.3 0.8,0.8 -0.1,0.4 -0.3,0.7 -0.8,0.7 m 1.7,-8.6 c 0,-0.3 0.2,-0.6 0.5,-0.6 0.2,0 0.3,0 0.4,0.1 0.1,0.1 0.2,0.2 0.2,0.3 0,0.4 -0.2,0.6 -0.5,0.6 -0.4,0.1 -0.6,-0.1 -0.6,-0.4 0,0 0,0 0,0 m 0.7,4.3 c 0.5,0 0.8,0.3 0.8,0.7 0.1,0.4 -0.3,0.8 -0.8,0.9 -0.4,0 -0.8,-0.3 -0.8,-0.8 0.1,-0.5 0.4,-0.7 0.8,-0.8 m 0.3,7 c -0.5,0 -1,-0.5 -1,-1 0,-0.5 0.5,-1.1 1,-1.1 0.5,0 1.1,0.5 1.1,1 -0.1,0.6 -0.6,1.1 -1.1,1.1 m 2.2,-9.7 c 0.5,0 0.8,0.4 0.8,0.8 0,0.4 -0.4,0.8 -0.8,0.8 -0.5,0 -0.8,-0.3 -0.8,-0.8 0,-0.4 0.3,-0.8 0.8,-0.8 m -0.8,6 c 0,-0.6 0.4,-1.1 1,-1.1 0.6,0 1.1,0.4 1.1,1 0,0.6 -0.4,1.1 -1,1.1 -0.5,0 -1,-0.4 -1.1,-1 m 1.4,6.4 c -0.7,0 -1.2,-0.5 -1.3,-1.2 0,-0.7 0.4,-1.3 1.1,-1.3 0.7,-0.1 1.3,0.4 1.3,1.2 0.1,0.7 -0.4,1.3 -1.1,1.3 m 1.1,-3.9 c 0,-0.7 0.6,-1.3 1.2,-1.4 0.7,0 1.4,0.6 1.4,1.3 0,0.7 -0.6,1.3 -1.2,1.3 -0.7,0.1 -1.4,-0.5 -1.4,-1.2 m 1.6,6.6 c -0.8,0 -1.4,-0.6 -1.5,-1.4 0,-0.8 0.6,-1.5 1.4,-1.5 0.8,0 1.5,0.6 1.5,1.4 0,0.8 -0.6,1.4 -1.4,1.5 m 2.5,-2.7 c -0.8,0 -1.5,-0.6 -1.5,-1.4 0,-0.9 0.6,-1.5 1.4,-1.6 0.8,0 1.5,0.6 1.5,1.4 0.1,0.9 -0.6,1.5 -1.4,1.6"
   clip-path="url(#SVGID_8_)"
   id="path92"
   style="fill:#ffffff" />
	<path
   class="st4"
   d="m 343,376.6 c -0.4,0 -0.8,0 -1,0.2 -0.3,0.2 -0.1,0.7 -0.1,1 0,0.4 0.4,0 0.6,0.1 0.3,0.1 0.6,0.1 0.9,0.2 -0.2,-0.4 -0.4,-0.8 -0.3,-1.2 0.1,-0.1 0.1,-0.3 -0.1,-0.3"
   clip-path="url(#SVGID_8_)"
   id="path94"
   style="fill:#ffffff" />
</g><path
     class="st0"
     d="m 1550.7032,525.87441 c 0.1852,-0.5139 -0.1852,-0.64234 -0.9263,-0.64234 -0.741,0 -0.9262,0.1285 -0.9262,0.64234 0,0.77078 0.741,0.51385 1.482,0.51385 0.5557,0.25706 0.5557,-0.1285 0.3705,-0.51385"
     id="path98"
     style="fill:#ffffff;stroke-width:1.54267" /><g
     id="g108"
     style="fill:#ffffff"
     transform="matrix(1.8524807,0,0,1.2846865,916.04331,47.970991)">
	<defs
   id="defs101">
		<path
   id="SVGID_9_"
   d="m 376.8,390.3 c -0.1,0.1 -0.2,0.2 -0.4,0.2 0.1,-0.1 0.3,-0.2 0.5,-0.3 0,0.1 0,0.1 -0.1,0.1 m 0,-3.1 c 0,0 0,0 0,0 0,0 0,0 0,0 m 0,0 c -0.1,0 -0.1,-0.1 0,0 -0.1,-0.1 -0.1,0 0,0 m -1.1,-125.7 c -34.4,0.1 -62.3,27.7 -62.7,62.1 v 0.6 c 0.1,34.6 28.1,62.6 62.7,62.7 34.6,0 62.7,-28.1 62.7,-62.7 0,-34.3 -27.5,-62.1 -61.6,-62.7 z m 0,0 c -0.2,0 -0.4,0 -0.6,-0.1 0.3,0.1 0.5,0.1 0.6,0.1 m -1.4,-0.6 c -0.1,-0.1 -0.2,-0.2 -0.2,-0.3 0,0.2 0.1,0.3 0.2,0.3" />
	</defs>
	<clipPath
   id="SVGID_10_">
		<use
   xlink:href="#SVGID_9_"
   style="overflow:visible"
   id="use103"
   x="0"
   y="0"
   width="100%"
   height="100%" />
	</clipPath>
	<path
   class="st5"
   d="m 403.2,284.1 c 0.3,0.4 -0.3,1.1 0.4,1.2 0.5,0.1 0.9,-0.3 0.8,-0.8 -0.1,-0.6 -0.8,-0.1 -1.2,-0.4"
   clip-path="url(#SVGID_10_)"
   id="path106"
   style="fill:#ffffff" />
</g><path
     class="st0"
     d="m 1545.5162,521.89189 c 0,-0.1285 -0.1852,-0.1285 -0.3705,-0.1285 -0.741,0.1285 -1.482,0 -2.4082,-0.1285 0.3705,0.51387 0.5557,1.02775 0.5557,1.54162 0,0.1285 0.1852,0.25706 0.1852,0.25706 0.741,-0.1285 1.482,0 1.8525,-0.25706 0.5558,-0.25705 0.1852,-0.8993 0.1852,-1.28467"
     id="path110"
     style="fill:#ffffff;stroke-width:1.54267" /><path
     class="st0"
     d="m 1665.9275,406.01314 c -0.3705,0.1285 -0.9263,0.1285 -1.2968,0.1285 0.3705,0.1285 0.741,0.25708 1.1115,0.38542 0,-0.1285 0.1852,-0.38542 0.1852,-0.5139"
     id="path112"
     style="fill:#ffffff;stroke-width:1.54267" /><g
     id="g122"
     style="fill:#ffffff"
     transform="matrix(1.8524807,0,0,1.2846865,916.04331,47.970991)">
	<defs
   id="defs115">
		<path
   id="SVGID_11_"
   d="m 376.8,390.3 c -0.1,0.1 -0.2,0.2 -0.4,0.2 0.1,-0.1 0.3,-0.2 0.5,-0.3 0,0.1 0,0.1 -0.1,0.1 m 0,-3.1 c 0,0 0,0 0,0 0,0 0,0 0,0 m 0,0 c -0.1,0 -0.1,-0.1 0,0 -0.1,-0.1 -0.1,0 0,0 m -1.1,-125.7 c -34.4,0.1 -62.3,27.7 -62.7,62.1 v 0.6 c 0.1,34.6 28.1,62.6 62.7,62.7 34.6,0 62.7,-28.1 62.7,-62.7 0,-34.3 -27.5,-62.1 -61.6,-62.7 z m 0,0 c -0.2,0 -0.4,0 -0.6,-0.1 0.3,0.1 0.5,0.1 0.6,0.1 m -1.4,-0.6 c -0.1,-0.1 -0.2,-0.2 -0.2,-0.3 0,0.2 0.1,0.3 0.2,0.3" />
	</defs>
	<clipPath
   id="SVGID_12_">
		<use
   xlink:href="#SVGID_11_"
   style="overflow:visible"
   id="use117"
   x="0"
   y="0"
   width="100%"
   height="100%" />
	</clipPath>
	<path
   class="st6"
   d="m 339.4,374.3 c -0.3,-0.1 -0.4,0 -0.4,0.4 0,0.4 0.1,0.6 0.6,0.6 0.3,0 0.6,-0.1 0.5,-0.5 0,-0.6 -0.3,-0.6 -0.7,-0.5"
   clip-path="url(#SVGID_12_)"
   id="path120"
   style="fill:#ffffff" />
</g><path
     class="st0"
     d="m 1549.9622,519.32249 c 0,-0.77083 0,-1.1562 -1.482,-1.02773 -0.3705,0.1285 -1.1115,-0.25707 -0.9263,0.25706 0.1852,0.51387 -0.3705,1.15625 0.5558,1.41317 0.5557,0 1.8525,0.3854 1.8525,-0.64235"
     id="path124"
     style="fill:#ffffff;stroke-width:1.54267" /><path
     class="st0"
     d="m 1575.3412,492.34409 c 0.5557,-0.1285 1.2967,0 1.8524,-0.25708 0.5558,-0.25705 0.3705,-0.89927 0.1852,-1.28467 -0.1852,-0.51387 -0.9262,0 -1.2967,-0.1285 -0.3705,-0.1285 -0.9262,-0.1285 -1.482,-0.1285 0.1852,0.51387 0.5558,1.02772 0.3705,1.54162 0,0.1285 0,0.3854 0.3705,0.25705"
     id="path126"
     style="fill:#ffffff;stroke-width:1.54267" /><g
     id="g136"
     style="fill:#ffffff"
     transform="matrix(1.8524807,0,0,1.2846865,916.04331,47.970991)">
	<defs
   id="defs129">
		<path
   id="SVGID_13_"
   d="m 376.8,390.3 c -0.1,0.1 -0.2,0.2 -0.4,0.2 0.1,-0.1 0.3,-0.2 0.5,-0.3 0,0.1 0,0.1 -0.1,0.1 m 0,-3.1 c 0,0 0,0 0,0 0,0 0,0 0,0 m 0,0 c -0.1,0 -0.1,-0.1 0,0 -0.1,-0.1 -0.1,0 0,0 m -1.1,-125.7 c -34.4,0.1 -62.3,27.7 -62.7,62.1 v 0.6 c 0.1,34.6 28.1,62.6 62.7,62.7 34.6,0 62.7,-28.1 62.7,-62.7 0,-34.3 -27.5,-62.1 -61.6,-62.7 z m 0,0 c -0.2,0 -0.4,0 -0.6,-0.1 0.3,0.1 0.5,0.1 0.6,0.1 m -1.4,-0.6 c -0.1,-0.1 -0.2,-0.2 -0.2,-0.3 0,0.2 0.1,0.3 0.2,0.3" />
	</defs>
	<clipPath
   id="SVGID_14_">
		<use
   xlink:href="#SVGID_13_"
   style="overflow:visible"
   id="use131"
   x="0"
   y="0"
   width="100%"
   height="100%" />
	</clipPath>
	<path
   class="st7"
   d="m 403.4,294.6 c -0.3,-0.1 -0.2,0.1 -0.2,0.3 0,0.4 0,0.8 -0.2,1.3 1.1,-0.2 1.9,-0.1 2.4,1 0.3,0.7 0.2,1.3 -0.3,1.9 -0.6,0.7 -1.5,0.8 -2.4,0.3 0.4,0.9 0.5,1.6 -0.2,2.3 -0.6,0.7 -1.4,0.8 -2.3,0.4 0.7,0.7 1.3,1.5 1.9,2.3 0.3,0.2 0.5,0.4 0.6,0.8 0.4,0.6 0.8,1.1 1.1,1.7 0.7,0 1.4,0.7 1.4,1.4 0,0.2 -0.1,0.4 -0.2,0.6 0.2,0.4 0.4,0.8 0.6,1.2 0.2,-0.2 0.6,-0.4 0.9,-0.4 0.6,0 1.1,0.6 1.1,1.2 0,0.6 -0.6,1.1 -1.1,1.1 1.5,3.8 2.4,7.9 2.4,12.2 0,18.3 -14.8,33.1 -33.1,33.2 -0.7,0 -1.4,-0.1 -2.1,-0.1 0,0.1 0.1,0.2 0.1,0.3 0,0.5 -0.5,1 -1,1 -0.5,0 -1,-0.5 -1,-1 0,-0.2 0.1,-0.3 0.2,-0.4 -2,-0.2 -3.9,-0.6 -5.7,-1.2 -0.2,0.5 -0.7,0.9 -1.3,0.9 -0.8,0 -1.6,-0.6 -1.6,-1.4 0,-0.2 0,-0.3 0.1,-0.5 -0.3,-0.1 -0.6,-0.2 -0.8,-0.3 -0.4,0.1 -0.9,0 -1.4,-0.2 0.4,0.9 0.5,1.7 -0.1,2.4 -0.6,0.7 -1.3,0.8 -2.3,0.5 0.4,0.9 0.4,1.7 -0.3,2.4 -0.6,0.6 -1.4,0.7 -2.3,0.3 0.3,0.9 0.4,1.6 -0.1,2.3 0,0 0,0 0,0 0.1,0 0.1,0.1 0.2,0.1 0.3,-0.2 0.6,-0.4 1,-0.4 1,0 1.6,0.6 1.7,1.6 0,0 0,0.1 0,0.1 1.7,0.7 3.5,1.3 5.4,1.8 0.1,-0.4 0.4,-0.8 0.9,-0.8 0.6,0 1.1,0.4 1.1,1 0,0.1 -0.1,0.2 -0.1,0.3 3.1,0.7 6.3,1.1 9.6,1.1 11.8,0 22.5,-4.8 30.3,-12.6 7.8,-7.8 12.6,-18.5 12.6,-30.3 0,-8.3 -2.4,-16 -6.5,-22.5 -0.1,0.1 -0.3,0.1 -0.4,0.1 -0.7,0 -1.3,-0.6 -1.3,-1.3 0,-0.3 0.1,-0.7 0.4,-0.9 -0.2,-0.2 -0.4,-0.5 -0.5,-0.7 -0.3,0.3 -0.7,0.6 -1.1,0.6 -0.8,0 -1.6,-0.8 -1.5,-1.6 0,-0.6 0.4,-1 0.9,-1.3 -0.1,-0.1 -0.3,-0.3 -0.4,-0.4 -0.3,0.6 -1,1 -1.8,0.9 -1.1,-0.1 -1.6,-1 -1.5,-2.5 -0.9,-0.1 -1.3,0 -1.8,-0.1 m -41.2,61.9 c 0.8,0 1.6,0.7 1.6,1.5 0,0.8 -0.7,1.6 -1.5,1.6 -0.8,0 -1.6,-0.7 -1.7,-1.5 0.1,-0.8 0.8,-1.6 1.6,-1.6 m -2.5,5.9 c -0.9,0 -1.6,-0.7 -1.6,-1.6 0,-0.9 0.7,-1.6 1.6,-1.6 0.9,0 1.6,0.7 1.6,1.6 0,0.8 -0.7,1.6 -1.6,1.6 m 2.8,2.2 c -0.8,0.1 -1.4,-0.5 -1.4,-1.3 0,-0.7 0.5,-1.3 1.2,-1.4 0.8,-0.1 1.4,0.5 1.4,1.3 0.1,0.7 -0.4,1.3 -1.2,1.4 m 2.4,-2.8 c -0.7,0 -1.3,-0.5 -1.4,-1.2 -0.1,-0.7 0.5,-1.4 1.2,-1.4 0.7,0 1.4,0.5 1.4,1.2 0.1,0.8 -0.5,1.4 -1.2,1.4 m 2.7,2.2 c -0.6,0 -1.1,-0.4 -1.1,-1 0,-0.6 0.4,-1.1 1,-1.1 0.6,0 1.1,0.4 1.1,1 0.1,0.6 -0.4,1.1 -1,1.1 m 0,-4.9 c -0.7,0 -1.3,-0.5 -1.4,-1.2 0,-0.7 0.5,-1.3 1.2,-1.4 0.7,-0.1 1.3,0.5 1.4,1.2 0,0.7 -0.6,1.3 -1.2,1.4 m 1.4,1.2 c 0,-0.6 0.5,-1 1,-1 0.6,0 1.1,0.5 1.1,1.1 0,0.6 -0.5,1 -1,1 -0.6,-0.1 -1.1,-0.6 -1.1,-1.1 m 1.3,6 c -0.5,0 -0.8,-0.3 -0.8,-0.8 0,-0.5 0.3,-0.8 0.8,-0.8 0.5,0 0.8,0.3 0.8,0.8 0,0.4 -0.3,0.7 -0.8,0.8 m 2.5,-2.8 c -0.4,0 -0.8,-0.3 -0.8,-0.8 0,-0.4 0.3,-0.7 0.7,-0.8 0.4,-0.1 0.8,0.3 0.9,0.8 0,0.4 -0.4,0.8 -0.8,0.8 m 1.7,-3.4 c 0,-0.5 0.3,-0.7 0.7,-0.9 0.5,0 0.8,0.3 0.8,0.7 0,0.5 -0.3,0.8 -0.7,0.8 -0.5,0.1 -0.8,-0.2 -0.8,-0.6 m 1.1,5.6 c -0.4,0 -0.6,-0.1 -0.6,-0.5 0,-0.4 0.1,-0.6 0.5,-0.6 0.4,0 0.6,0.2 0.6,0.5 0,0.4 -0.2,0.6 -0.5,0.6 m 28.1,-61.1 c -0.9,-0.1 -1.5,-0.8 -1.5,-1.7 0.1,-0.9 0.8,-1.6 1.7,-1.5 0.9,0.1 1.5,0.8 1.5,1.7 0,0.9 -0.8,1.6 -1.7,1.5 m 2.8,2.4 c -0.8,0 -1.3,-0.6 -1.3,-1.3 0,-0.8 0.6,-1.3 1.3,-1.3 0.8,0 1.3,0.6 1.3,1.3 0,0.7 -0.6,1.3 -1.3,1.3 m 2.5,2.4 c -0.6,-0.1 -1.1,-0.6 -1.1,-1.2 0,-0.6 0.6,-1.1 1.2,-1.1 0.6,0.1 1.1,0.6 1.1,1.2 0,0.6 -0.6,1.1 -1.2,1.1 m 3.4,1.7 c -0.1,0.3 -0.4,0.6 -0.7,0.6 -0.3,0 -0.5,-0.1 -0.6,-0.3 -0.2,-0.1 -0.3,-0.3 -0.3,-0.6 0,-0.5 0.5,-0.9 0.9,-0.9 0.4,0 0.9,0.4 0.9,0.9 -0.1,0.1 -0.1,0.2 -0.2,0.3 m 1.8,-3.7 c 0.5,0 0.9,0.4 0.9,0.8 0,0.5 -0.4,0.9 -0.8,0.9 -0.5,0 -0.9,-0.4 -0.9,-0.8 0,-0.5 0.3,-0.9 0.8,-0.9 m -2.6,-2.8 c 0.6,0 1.1,0.4 1.1,1.1 0,0.6 -0.4,1.1 -1,1.1 -0.6,0 -1.1,-0.4 -1.1,-1.1 0,-0.7 0.4,-1.1 1,-1.1 m -2.5,-2.9 c 0.8,0 1.3,0.6 1.3,1.4 0,0.7 -0.6,1.3 -1.3,1.3 -0.8,0 -1.3,-0.6 -1.3,-1.4 -0.1,-0.7 0.5,-1.3 1.3,-1.3 m -2.7,-2.8 c 0.8,0 1.6,0.8 1.6,1.6 0,0.8 -0.8,1.6 -1.6,1.6 -0.8,0 -1.6,-0.8 -1.5,-1.6 0,-0.9 0.7,-1.6 1.5,-1.6"
   clip-path="url(#SVGID_14_)"
   id="path134"
   style="fill:#ffffff" />
</g><path
     class="st0"
     d="m 1567.1902,505.83329 c 0.5558,0 1.482,0.25705 1.2968,-0.64235 0,-0.64233 -0.5558,-0.7708 -1.2968,-0.64233 -0.1852,0.1285 -0.9262,-0.38542 -0.741,0.25706 0.1852,0.38542 -0.3705,1.02777 0.741,1.02777"
     id="path138"
     style="fill:#ffffff;stroke-width:1.54267" /><g
     id="g148"
     style="fill:#ffffff"
     transform="matrix(1.8524807,0,0,1.2846865,916.04331,47.970991)">
	<defs
   id="defs141">
		<path
   id="SVGID_15_"
   d="m 376.8,390.3 c -0.1,0.1 -0.2,0.2 -0.4,0.2 0.1,-0.1 0.3,-0.2 0.5,-0.3 0,0.1 0,0.1 -0.1,0.1 m 0,-3.1 c 0,0 0,0 0,0 0,0 0,0 0,0 m 0,0 c -0.1,0 -0.1,-0.1 0,0 -0.1,-0.1 -0.1,0 0,0 m -1.1,-125.7 c -34.4,0.1 -62.3,27.7 -62.7,62.1 v 0.6 c 0.1,34.6 28.1,62.6 62.7,62.7 34.6,0 62.7,-28.1 62.7,-62.7 0,-34.3 -27.5,-62.1 -61.6,-62.7 z m 0,0 c -0.2,0 -0.4,0 -0.6,-0.1 0.3,0.1 0.5,0.1 0.6,0.1 m -1.4,-0.6 c -0.1,-0.1 -0.2,-0.2 -0.2,-0.3 0,0.2 0.1,0.3 0.2,0.3" />
	</defs>
	<clipPath
   id="SVGID_16_">
		<use
   xlink:href="#SVGID_15_"
   style="overflow:visible"
   id="use143"
   x="0"
   y="0"
   width="100%"
   height="100%" />
	</clipPath>
	<path
   class="st8"
   d="m 414.1,280.5 c 0.4,-0.1 0.8,0.1 1.3,0.2 -0.1,-0.5 -0.3,-0.8 -0.2,-1.3 0,-0.1 -0.1,-0.2 -0.1,-0.2 -0.4,0 -0.8,-0.1 -1,0.2 -0.3,0.3 -0.1,0.7 -0.2,1 -0.1,0.1 0.1,0.1 0.2,0.1"
   clip-path="url(#SVGID_16_)"
   id="path146"
   style="fill:#ffffff" />
</g><path
     class="st0"
     d="m 1678.7096,404.59999 c 0.741,0 1.1115,-0.1285 0.9262,-0.64235 0,-0.77082 -0.741,-0.51387 -1.2967,-0.64235 -0.741,-0.1285 -0.741,0.25705 -0.5558,0.64235 -0.1852,0.38542 0.1852,0.64235 0.9263,0.64235"
     id="path150"
     style="fill:#ffffff;stroke-width:1.54267" /><path
     class="st0"
     d="m 1572.3772,495.81274 c 0.5557,0.1285 0.5557,-0.1285 0.5557,-0.38543 0,-0.25704 0,-0.64234 0,-0.89924 0,-0.25708 0,-0.5139 -0.5557,-0.38543 -0.741,0.1285 -1.482,0 -2.4082,-0.1285 0.1852,0.3854 0.1852,0.64235 0.3705,0.89928 v 0 c 0.5557,0.3854 1.1114,0.64235 1.6672,1.02775 0,-0.1285 0.1852,-0.1285 0.3705,-0.1285"
     id="path152"
     style="fill:#ffffff;stroke-width:1.54267" /><path
     class="st0"
     d="m 1570.71,495.94119 c -0.1852,-0.1285 -0.3705,-0.1285 -0.3705,-0.25705 0,0.1285 0,0.25705 0.1852,0.25705 0.1852,0 0.1852,0 0.1852,0"
     id="path154"
     style="fill:#ffffff;stroke-width:1.54267" /><g
     id="g164"
     style="fill:#ffffff"
     transform="matrix(1.8524807,0,0,1.2846865,916.04331,47.970991)">
	<defs
   id="defs157">
		<path
   id="SVGID_17_"
   d="m 376.8,390.3 c -0.1,0.1 -0.2,0.2 -0.4,0.2 0.1,-0.1 0.3,-0.2 0.5,-0.3 0,0.1 0,0.1 -0.1,0.1 m 0,-3.1 c 0,0 0,0 0,0 0,0 0,0 0,0 m 0,0 c -0.1,0 -0.1,-0.1 0,0 -0.1,-0.1 -0.1,0 0,0 m -1.1,-125.7 c -34.4,0.1 -62.3,27.7 -62.7,62.1 v 0.6 c 0.1,34.6 28.1,62.6 62.7,62.7 34.6,0 62.7,-28.1 62.7,-62.7 0,-34.3 -27.5,-62.1 -61.6,-62.7 z m 0,0 c -0.2,0 -0.4,0 -0.6,-0.1 0.3,0.1 0.5,0.1 0.6,0.1 m -1.4,-0.6 c -0.1,-0.1 -0.2,-0.2 -0.2,-0.3 0,0.2 0.1,0.3 0.2,0.3" />
	</defs>
	<clipPath
   id="SVGID_18_">
		<use
   xlink:href="#SVGID_17_"
   style="overflow:visible"
   id="use159"
   x="0"
   y="0"
   width="100%"
   height="100%" />
	</clipPath>
	<path
   class="st9"
   d="m 337.4,371.8 c 0.1,-0.2 0,-0.3 -0.3,-0.3 -0.5,0.1 -0.9,0 -1.4,-0.3 0.3,0.6 0.5,1 0.3,1.5 0,0.1 0,0.3 0.2,0.2 0.4,-0.1 0.8,-0.1 1.1,-0.2 0.2,-0.1 0,-0.5 0,-0.8 0.1,0 0.1,-0.1 0.1,-0.1"
   clip-path="url(#SVGID_18_)"
   id="path162"
   style="fill:#ffffff" />
</g><path
     class="st0"
     d="m 1668.5209,417.44684 c 0,1.15625 1.482,0.38542 2.223,0.77083 -0.5557,-0.51388 0.5558,-1.41316 -0.741,-1.5416 -0.5557,0 -1.482,0 -1.482,0.77077"
     id="path166"
     style="fill:#ffffff;stroke-width:1.54267" /><path
     class="st0"
     d="m 1677.9686,410.50956 c -0.1852,0.77078 0,1.1562 1.2967,1.02773 0.3705,0 1.1115,0.3854 0.9263,-0.1285 -0.1852,-0.51385 0.3705,-1.1562 -0.5558,-1.41315 -0.1852,0 -1.482,-0.51387 -1.6672,0.51387"
     id="path168"
     style="fill:#ffffff;stroke-width:1.54267" /><path
     class="st0"
     d="m 1673.3374,413.84974 c 0,0.64235 -0.3705,1.28467 0.9262,1.02773 1.1115,0.1285 1.2968,0 1.1115,-0.1285 -0.3705,-0.38541 0.5558,-1.15623 -0.741,-1.28468 -0.1852,-0.1285 -1.2967,-0.5139 -1.2967,0.38538"
     id="path170"
     style="fill:#ffffff;stroke-width:1.54267" /><g
     id="g180"
     style="fill:#ffffff"
     transform="matrix(1.8524807,0,0,1.2846865,916.04331,47.970991)">
	<defs
   id="defs173">
		<path
   id="SVGID_19_"
   d="m 376.8,390.3 c -0.1,0.1 -0.2,0.2 -0.4,0.2 0.1,-0.1 0.3,-0.2 0.5,-0.3 0,0.1 0,0.1 -0.1,0.1 m 0,-3.1 c 0,0 0,0 0,0 0,0 0,0 0,0 m 0,0 c -0.1,0 -0.1,-0.1 0,0 -0.1,-0.1 -0.1,0 0,0 m -1.1,-125.7 c -34.4,0.1 -62.3,27.7 -62.7,62.1 v 0.6 c 0.1,34.6 28.1,62.6 62.7,62.7 34.6,0 62.7,-28.1 62.7,-62.7 0,-34.3 -27.5,-62.1 -61.6,-62.7 z m 0,0 c -0.2,0 -0.4,0 -0.6,-0.1 0.3,0.1 0.5,0.1 0.6,0.1 m -1.4,-0.6 c -0.1,-0.1 -0.2,-0.2 -0.2,-0.3 0,0.2 0.1,0.3 0.2,0.3" />
	</defs>
	<clipPath
   id="SVGID_20_">
		<use
   xlink:href="#SVGID_19_"
   style="overflow:visible"
   id="use175"
   x="0"
   y="0"
   width="100%"
   height="100%" />
	</clipPath>
	<path
   class="st10"
   d="m 409.1,280.1 c 0.4,0.1 0.5,-0.1 0.5,-0.5 0,-0.6 -0.4,-0.4 -0.7,-0.5 -0.5,0 -0.4,0.3 -0.4,0.6 0,0.4 0.2,0.5 0.6,0.4"
   clip-path="url(#SVGID_20_)"
   id="path178"
   style="fill:#ffffff" />
</g><path
     class="st0"
     d="m 1667.4094,425.15496 c 0,0 0,0 0,0 0,0 0.1852,0 0,0 0.1852,0 0,0 0,0"
     id="path182"
     style="fill:#ffffff;stroke-width:1.54267" /><path
     class="st0"
     d="m 1669.2619,411.15189 c 1.1115,0 0.741,-0.64233 0.5558,-0.89928 0,-0.77082 -1.1115,-0.38542 -1.6673,-0.51387 -0.741,-0.1285 -0.1852,0.3854 -0.3705,0.51387 0,1.02773 0.741,0.89928 1.482,0.89928"
     id="path184"
     style="fill:#ffffff;stroke-width:1.54267" /><path
     class="st0"
     d="m 1649.8109,429.90831 c -0.741,0 -0.9263,0.25708 -0.9263,0.51386 0.5558,0.25707 1.1115,0.51389 1.6673,0.77082 0.1852,0 0.3705,-0.1285 0.3705,-0.3854 -0.1852,-0.38542 0,-0.89927 -1.1115,-0.89927"
     id="path186"
     style="fill:#ffffff;stroke-width:1.54267" /><path
     class="st0"
     d="m 1655.9241,433.12002 c -0.3705,-0.1285 -1.1115,0.1285 -1.6673,0.1285 -0.1852,0 -0.3705,0 -0.3705,0 0.9263,0.51389 1.6673,1.15624 2.5935,1.67009 -0.1852,-0.25705 -0.1852,-0.51385 -0.1852,-0.7708 -0.5557,-0.25705 0.1852,-0.77084 -0.3705,-1.02775"
     id="path188"
     style="fill:#ffffff;stroke-width:1.54267" /><g
     id="g198"
     style="fill:#ffffff"
     transform="matrix(1.8524807,0,0,1.2846865,916.04331,47.970991)">
	<defs
   id="defs191">
		<path
   id="SVGID_21_"
   d="m 376.8,390.3 c -0.1,0.1 -0.2,0.2 -0.4,0.2 0.1,-0.1 0.3,-0.2 0.5,-0.3 0,0.1 0,0.1 -0.1,0.1 m 0,-3.1 c 0,0 0,0 0,0 0,0 0,0 0,0 m 0,0 c -0.1,0 -0.1,-0.1 0,0 -0.1,-0.1 -0.1,0 0,0 m -1.1,-125.7 c -34.4,0.1 -62.3,27.7 -62.7,62.1 v 0.6 c 0.1,34.6 28.1,62.6 62.7,62.7 34.6,0 62.7,-28.1 62.7,-62.7 0,-34.3 -27.5,-62.1 -61.6,-62.7 z m 0,0 c -0.2,0 -0.4,0 -0.6,-0.1 0.3,0.1 0.5,0.1 0.6,0.1 m -1.4,-0.6 c -0.1,-0.1 -0.2,-0.2 -0.2,-0.3 0,0.2 0.1,0.3 0.2,0.3" />
	</defs>
	<clipPath
   id="SVGID_22_">
		<use
   xlink:href="#SVGID_21_"
   style="overflow:visible"
   id="use193"
   x="0"
   y="0"
   width="100%"
   height="100%" />
	</clipPath>
	<path
   class="st11"
   d="m 398.6,289.3 c -0.3,0 -0.5,-0.1 -0.8,-0.2 0.1,0.2 0.1,0.4 0.2,0.6 0,0.2 0,0.3 0.1,0.5 0,0.2 0.1,0.4 0.3,0.3 0.3,0 0.6,0.1 0.8,-0.1 0.1,-0.3 -0.2,-1 -0.6,-1.1"
   clip-path="url(#SVGID_22_)"
   id="path196"
   style="fill:#ffffff" />
</g><path
     class="st0"
     d="m 1648.8846,438.00184 c 0,0.51385 0.9263,0.1285 1.2968,0.25707 0.3705,0.1285 0.741,0.1285 1.2967,0.25706 -0.1852,-0.51386 -0.5557,-1.02773 -0.3705,-1.54163 0,-0.1285 0,-0.3854 -0.1852,-0.25705 -0.5557,0 -1.2967,0 -1.8525,0.25705 -0.5557,0.1285 -0.3705,0.64235 -0.1852,1.02778"
     id="path200"
     style="fill:#ffffff;stroke-width:1.54267" /><path
     class="st0"
     d="m 1649.2551,422.97099 c -0.3705,0 -0.741,-0.1285 -1.2967,-0.25705 0.1852,0.51387 0.1852,0.8993 0.3705,1.2847 0,0.25705 -0.3705,0.7708 0.3705,0.51387 0.5557,-0.1285 1.6672,0.3854 1.8525,-0.64235 0.1852,-0.51387 0,-1.02775 -1.2968,-0.89927"
     id="path202"
     style="fill:#ffffff;stroke-width:1.54267" /><path
     class="st0"
     d="m 1654.8126,426.69661 c -0.5558,0 -1.2968,-0.1285 -1.2968,0.51385 0,0.51388 0.1852,0.77083 0.9263,0.64235 0.741,0.1285 1.1115,0.1285 1.1115,-0.51387 0.1852,-0.25705 0.1852,-0.7708 -0.741,-0.64233"
     id="path204"
     style="fill:#ffffff;stroke-width:1.54267" /><path
     class="st0"
     d="m 1653.5158,434.53317 c 0,0.25707 0,0.51389 0.3705,0.38542 0.3705,0 0.741,0 1.1115,0 0,0 -0.1852,-0.1285 -0.1852,-0.25707 -0.3705,-0.25676 -0.741,-0.51386 -1.1115,-0.77078 -0.1852,0.25705 -0.1852,0.51387 -0.1852,0.64232"
     id="path206"
     style="fill:#ffffff;stroke-width:1.54267" /><path
     class="st0"
     d="m 1645.9207,433.76239 c 0.1852,-0.77083 -0.5558,-0.5139 -1.1115,-0.5139 -0.5558,-0.1285 -0.9263,-0.1285 -0.9263,0.5139 0,0.51387 0,0.77078 0.9263,0.77078 0.9262,0 0.9262,-0.25706 1.1115,-0.77078"
     id="path208"
     style="fill:#ffffff;stroke-width:1.54267" /><g
     id="g220"
     style="fill:#ffffff"
     transform="matrix(1.8524807,0,0,1.2846865,916.04331,47.970991)">
	<defs
   id="defs211">
		<path
   id="SVGID_23_"
   d="m 376.8,390.3 c -0.1,0.1 -0.2,0.2 -0.4,0.2 0.1,-0.1 0.3,-0.2 0.5,-0.3 0,0.1 0,0.1 -0.1,0.1 m 0,-3.1 c 0,0 0,0 0,0 0,0 0,0 0,0 m 0,0 c -0.1,0 -0.1,-0.1 0,0 -0.1,-0.1 -0.1,0 0,0 m -1.1,-125.7 c -34.4,0.1 -62.3,27.7 -62.7,62.1 v 0.6 c 0.1,34.6 28.1,62.6 62.7,62.7 34.6,0 62.7,-28.1 62.7,-62.7 0,-34.3 -27.5,-62.1 -61.6,-62.7 z m 0,0 c -0.2,0 -0.4,0 -0.6,-0.1 0.3,0.1 0.5,0.1 0.6,0.1 m -1.4,-0.6 c -0.1,-0.1 -0.2,-0.2 -0.2,-0.3 0,0.2 0.1,0.3 0.2,0.3" />
	</defs>
	<clipPath
   id="SVGID_24_">
		<use
   xlink:href="#SVGID_23_"
   style="overflow:visible"
   id="use213"
   x="0"
   y="0"
   width="100%"
   height="100%" />
	</clipPath>
	<path
   class="st12"
   d="m 394,310 c 0.2,0.2 0.3,0.4 0.5,0.6 0.1,-0.8 0.9,-1.5 1.7,-1.5 0.9,0 1.6,0.9 1.6,1.7 0,0.9 -0.8,1.6 -1.7,1.6 -0.2,0 -0.3,-0.1 -0.4,-0.1 0.5,0.8 0.9,1.6 1.3,2.5 0.4,0.3 0.6,0.7 0.6,1.1 0,0.1 0,0.3 -0.1,0.4 0.9,2.5 1.4,5.1 1.4,7.9 0,12.8 -10.4,23.2 -23.2,23.2 -0.7,0 -1.4,0 -2.1,-0.1 0,0.7 -0.6,1.3 -1.3,1.4 -0.7,0 -1.5,-0.6 -1.5,-1.4 0,-0.1 0,-0.3 0.1,-0.4 -1.6,-0.3 -3.1,-0.9 -4.6,-1.5 0,0.2 -0.1,0.4 -0.1,0.6 0.7,-0.2 1.3,-0.3 1.9,0.2 0.4,0.3 0.6,0.7 0.7,1.2 0.1,1 -0.7,1.9 -1.7,1.9 -1.2,0 -1.8,-0.9 -1.6,-2.5 -0.4,0.1 -0.9,0.3 -1.3,0.3 -0.2,0 -0.3,0.1 -0.2,0.3 0.1,0.4 0,0.8 0,1.2 1.7,0 2.5,0.5 2.5,1.7 0,1 -0.8,1.7 -1.7,1.7 -1.1,0 -1.7,-0.8 -1.7,-2.3 -0.4,0 -0.8,0.1 -1.1,0.1 -0.2,0 -0.3,0.1 -0.3,0.3 0.1,0.4 -0.1,0.8 -0.1,1.2 1,-0.2 1.8,-0.1 2.3,0.9 0.3,0.7 0.3,1.4 -0.2,1.9 -0.1,0.1 -0.2,0.2 -0.4,0.3 0.2,0.1 0.3,0.1 0.5,0.2 0.3,-0.4 0.7,-0.6 1.1,-0.7 0.8,0 1.6,0.6 1.6,1.4 0,0.1 0,0.1 0,0.2 1.1,0.3 2.1,0.6 3.2,0.8 -0.4,-0.2 -0.8,-0.6 -0.8,-1.1 0,-0.7 0.5,-1.3 1.2,-1.3 0.7,0 1.3,0.5 1.3,1.1 0.1,0.7 -0.5,1.3 -1.2,1.3 0.8,0.1 1.5,0.3 2.3,0.4 0.1,0 0.2,-0.1 0.3,-0.1 0.2,0 0.4,0.1 0.5,0.2 0.8,0.1 1.7,0.1 2.5,0.1 9,0 17.2,-3.7 23.1,-9.6 5.9,-5.9 9.6,-14.1 9.6,-23.1 0,-4.4 -0.9,-8.5 -2.4,-12.3 -0.4,-0.2 -0.7,-0.7 -0.6,-1.1 0,-0.1 0,-0.1 0.1,-0.2 -0.2,-0.4 -0.4,-0.8 -0.6,-1.3 -0.3,0.2 -0.6,0.4 -0.9,0.3 -0.7,0 -1.4,-0.7 -1.4,-1.5 0,-0.6 0.4,-1 0.9,-1.2 -0.2,-0.3 -0.4,-0.6 -0.6,-0.9 -0.1,0.7 -0.7,1.3 -1.5,1.3 -0.9,0 -1.6,-0.7 -1.6,-1.7 0,-0.9 0.7,-1.6 1.6,-1.5 0,0 0,0 0.1,0 -0.3,-0.4 -0.6,-0.7 -0.9,-1.1 0,0.5 -0.1,1 -0.5,1.4 -0.6,0.6 -1.3,0.7 -2.1,0.4 -0.1,0.2 0,0.4 0.1,0.5 0.3,1.3 -0.7,2.4 -2,2.2 -0.6,-0.1 -0.6,0.1 -0.5,0.5 0.1,0.6 -0.1,1.1 -0.5,1.5 -0.7,0.3 -0.9,0.5 -1.2,0.5 m -26.8,44.1 c -0.8,0 -1.5,-0.6 -1.5,-1.5 0,-0.8 0.6,-1.5 1.4,-1.5 0.9,0 1.5,0.6 1.5,1.5 0.1,0.9 -0.5,1.5 -1.4,1.5 m 2.6,-2.7 c -0.8,0 -1.5,-0.6 -1.5,-1.4 0,-0.8 0.6,-1.5 1.4,-1.5 0.8,0 1.5,0.6 1.5,1.4 0,0.7 -0.7,1.4 -1.4,1.5 m 2.7,2.2 c -0.7,0 -1.3,-0.4 -1.3,-1.2 0,-0.7 0.4,-1.2 1.1,-1.2 0.7,0 1.3,0.4 1.3,1.2 0,0.6 -0.4,1.1 -1.1,1.2 m 1.2,-3.9 c 0,-0.6 0.5,-1.2 1.1,-1.2 0.6,0 1.2,0.5 1.2,1.2 0,0.6 -0.5,1.2 -1.1,1.2 -0.6,0 -1.2,-0.6 -1.2,-1.2 m 1.5,6.1 c -0.6,0 -1,-0.4 -1,-0.9 0,-0.6 0.4,-1 1,-1 0.6,0 1,0.4 1,1 -0.1,0.4 -0.5,0.9 -1,0.9 m 23.5,-40.9 c -0.8,0 -1.5,-0.7 -1.5,-1.5 0,-0.8 0.7,-1.4 1.5,-1.4 0.8,0 1.4,0.7 1.4,1.4 0,0.8 -0.6,1.5 -1.4,1.5 m 5.1,-2.7 c 0.7,0 1.2,0.5 1.2,1.2 0,0 0,0 0,0.1 0,0 0,0 0,0 0,0.6 -0.6,1.1 -1.2,1.1 -0.3,0 -0.6,-0.2 -0.8,-0.4 -0.1,-0.1 -0.1,-0.2 -0.2,-0.3 0,-0.1 0,-0.1 -0.1,-0.2 0,-0.1 -0.1,-0.1 -0.1,-0.2 0,-0.7 0.6,-1.3 1.2,-1.3 m -1.1,-1.4 c 0,0.7 -0.7,1.4 -1.4,1.4 -0.8,0 -1.5,-0.7 -1.5,-1.4 0,-0.7 0.7,-1.4 1.4,-1.4 0.8,0 1.5,0.7 1.5,1.4 m -4,-4.2 c 0.9,0 1.6,0.7 1.6,1.7 0,0.9 -0.7,1.6 -1.7,1.6 -0.9,0 -1.6,-0.8 -1.6,-1.7 0.1,-0.9 0.8,-1.6 1.7,-1.6"
   clip-path="url(#SVGID_24_)"
   id="path216"
   style="fill:#ffffff" />
	<path
   class="st12"
   d="m 393.8,305.2 c -0.9,-0.3 -0.8,0.4 -0.7,0.8 0,0.7 0.7,0.4 1,0.4 0.6,-0.1 0.1,-0.6 0.2,-1 0.1,-0.5 -0.4,-0.2 -0.5,-0.2"
   clip-path="url(#SVGID_24_)"
   id="path218"
   style="fill:#ffffff" />
</g><path
     class="st0"
     d="m 1568.3017,512.89907 c 1.2968,0 1.2968,0 1.1115,-0.25708 -0.1852,-0.25705 0.1852,-0.7708 -0.1852,-1.02772 0,0 0,0 0,0 -0.1852,-0.1285 -0.1852,-0.1285 -0.5557,-0.1285 -0.3705,0 -1.482,-0.5139 -1.482,0.3854 0,0.64234 -0.1852,1.28469 1.1115,1.02775"
     id="path222"
     style="fill:#ffffff;stroke-width:1.54267" /><g
     id="g232"
     style="fill:#ffffff"
     transform="matrix(1.8524807,0,0,1.2846865,916.04331,47.970991)">
	<defs
   id="defs225">
		<path
   id="SVGID_25_"
   d="m 376.8,390.3 c -0.1,0.1 -0.2,0.2 -0.4,0.2 0.1,-0.1 0.3,-0.2 0.5,-0.3 0,0.1 0,0.1 -0.1,0.1 m 0,-3.1 c 0,0 0,0 0,0 0,0 0,0 0,0 m 0,0 c -0.1,0 -0.1,-0.1 0,0 -0.1,-0.1 -0.1,0 0,0 m -1.1,-125.7 c -34.4,0.1 -62.3,27.7 -62.7,62.1 v 0.6 c 0.1,34.6 28.1,62.6 62.7,62.7 34.6,0 62.7,-28.1 62.7,-62.7 0,-34.3 -27.5,-62.1 -61.6,-62.7 z m 0,0 c -0.2,0 -0.4,0 -0.6,-0.1 0.3,0.1 0.5,0.1 0.6,0.1 m -1.4,-0.6 c -0.1,-0.1 -0.2,-0.2 -0.2,-0.3 0,0.2 0.1,0.3 0.2,0.3" />
	</defs>
	<clipPath
   id="SVGID_26_">
		<use
   xlink:href="#SVGID_25_"
   style="overflow:visible"
   id="use227"
   x="0"
   y="0"
   width="100%"
   height="100%" />
	</clipPath>
	<path
   class="st13"
   d="m 354.6,343.8 c 0.1,-0.2 0,-0.4 -0.1,-0.5 -0.3,-1.3 0.6,-2.5 1.9,-2.3 0.6,0.1 0.6,-0.1 0.5,-0.6 -0.1,-0.6 0,-1.1 0.4,-1.6 0.1,-0.1 0.1,-0.1 0.2,-0.2 0,-0.1 -0.1,-0.1 -0.1,-0.2 -0.3,0.5 -0.8,0.8 -1.3,0.8 -0.9,0 -1.7,-0.8 -1.7,-1.6 0,-0.8 0.6,-1.5 1.3,-1.6 -2.1,-3.5 -3.3,-7.5 -3.3,-11.8 0,-12.8 10.4,-23.2 23.2,-23.2 1.3,0 2.5,0.1 3.8,0.3 -0.2,-0.3 -0.4,-0.6 -0.4,-0.9 0,-0.7 0.7,-1.4 1.4,-1.4 0.7,0 1.5,0.7 1.5,1.4 0,0.5 -0.3,1 -0.8,1.2 0.3,0.1 0.5,0.1 0.8,0.2 0.3,-0.3 0.7,-0.5 1.1,-0.5 0.8,0 1.5,0.7 1.6,1.5 0.6,0.2 1.1,0.5 1.6,0.8 0,-0.1 0,-0.3 0,-0.4 -0.1,-0.4 0.1,-0.8 0.2,-1.2 -0.7,0.2 -1.3,0.2 -1.9,-0.3 -0.4,-0.3 -0.6,-0.7 -0.6,-1.2 0,-1 0.8,-1.8 1.8,-1.8 1.2,0.1 1.7,1 1.5,2.5 0.4,-0.1 0.9,-0.3 1.3,-0.2 0.2,0 0.3,-0.1 0.3,-0.3 -0.1,-0.4 0,-0.8 0.1,-1.2 -1.7,-0.1 -2.5,-0.6 -2.4,-1.8 0,-1 0.8,-1.7 1.8,-1.6 1.1,0 1.7,0.9 1.6,2.4 0.4,0 0.8,0 1.1,-0.1 0.2,0 0.3,-0.1 0.3,-0.3 -0.1,-0.4 0.1,-0.8 0.1,-1.2 -1,0.1 -1.8,0 -2.2,-1 -0.2,-0.5 -0.2,-1 0.1,-1.5 -0.3,-0.1 -0.5,-0.3 -0.8,-0.4 -0.1,0 -0.1,0.1 -0.2,0.1 -0.5,0 -0.9,-0.2 -1.2,-0.6 -0.9,-0.3 -1.9,-0.7 -2.8,-0.9 0,0.7 -0.5,1.2 -1.2,1.2 -0.7,0 -1.2,-0.5 -1.3,-1.2 0,-0.2 0,-0.4 0.1,-0.6 -2,-0.4 -4.2,-0.6 -6.3,-0.6 -9,0 -17.2,3.7 -23.1,9.6 -5.9,5.9 -9.6,14.1 -9.6,23.1 0,4.5 0.9,8.8 2.6,12.7 0,0 0.1,0 0.1,0 0.6,0 1.2,0.6 1.2,1.2 0,0.3 -0.2,0.6 -0.4,0.8 0.2,0.4 0.4,0.8 0.6,1.2 0.2,-0.5 0.7,-0.9 1.3,-0.9 0.7,0 1.4,0.7 1.4,1.4 0,0.7 -0.6,1.4 -1.3,1.4 -0.1,0 -0.2,0 -0.2,0 1.1,1.6 2.3,3.1 3.6,4.6 0.2,0 0.3,0.1 0.5,0.1 -0.4,-0.9 -0.4,-1.6 0.2,-2.3 0.6,-0.7 1.3,-0.8 2.1,-0.5 m 31.2,-50 c 0.8,0 1.4,0.7 1.4,1.5 0,0.8 -0.6,1.4 -1.5,1.4 -0.9,0 -1.5,-0.7 -1.4,-1.6 0,-0.8 0.6,-1.3 1.5,-1.3 m -2.7,2.6 c 0.8,0 1.5,0.7 1.5,1.5 0,0.8 -0.7,1.4 -1.5,1.4 -0.8,0 -1.5,-0.7 -1.5,-1.5 0.1,-0.8 0.7,-1.4 1.5,-1.4 m -2.6,-2.3 c 0.7,0 1.2,0.5 1.2,1.2 0,0.7 -0.5,1.2 -1.2,1.2 -0.7,0 -1.2,-0.5 -1.2,-1.2 0,-0.7 0.5,-1.2 1.2,-1.2 m -2.6,-2.4 c 0.6,0 1,0.4 1,1 0,0.6 -0.4,1 -1,1 -0.6,0 -1,-0.5 -0.9,-1 0,-0.6 0.4,-1 0.9,-1 m 0,5 c 0.6,0 1.2,0.6 1.2,1.2 0,0.6 -0.6,1.2 -1.2,1.2 -0.6,0 -1.2,-0.6 -1.2,-1.2 0,-0.7 0.6,-1.2 1.2,-1.2 m -29.6,39.9 c -0.7,0 -1.3,-0.5 -1.3,-1.1 0,0 0,0 0,-0.1 0,0 0,0 0,0 0,-0.6 0.6,-1.2 1.2,-1.2 0.3,0 0.6,0.1 0.9,0.4 0.1,0.1 0.1,0.2 0.2,0.3 0,0.1 0.1,0.1 0.1,0.2 0,0.1 0.1,0.1 0.1,0.2 -0.1,0.7 -0.6,1.2 -1.2,1.3 m 5,-2.9 c 0.8,-0.1 1.5,0.6 1.5,1.4 0,0.8 -0.6,1.5 -1.4,1.5 -0.8,0 -1.5,-0.6 -1.5,-1.4 0,-0.8 0.6,-1.5 1.4,-1.5 m -3.8,4.2 c 0,-0.7 0.6,-1.4 1.3,-1.5 0.8,-0.1 1.5,0.6 1.5,1.4 0,0.7 -0.6,1.4 -1.3,1.5 -0.7,0 -1.5,-0.6 -1.5,-1.4 m 1.7,6.7 c -0.9,0 -1.6,-0.6 -1.6,-1.5 0,-0.9 0.6,-1.6 1.5,-1.6 0.9,0 1.6,0.6 1.7,1.6 0,0.8 -0.7,1.5 -1.6,1.5 m 0.8,-4.2 c 0,-0.9 0.7,-1.7 1.6,-1.7 0.9,0 1.7,0.7 1.7,1.6 0,0.9 -0.7,1.6 -1.6,1.7 -0.9,0 -1.7,-0.7 -1.7,-1.6"
   clip-path="url(#SVGID_26_)"
   id="path230"
   style="fill:#ffffff" />
</g><path
     class="st0"
     d="m 1645.5502,426.31119 c -0.9263,0.1285 -1.482,-0.1285 -2.5935,-0.3854 0.5557,0.64235 0.5557,1.28467 0.3705,1.92703 0.1852,0.1285 0.3705,0.1285 0.5557,0.25707 0.3705,0 0.741,-0.1285 1.2968,-0.1285 0.5557,0 0.9262,-0.1285 0.741,-0.51387 0,-0.25705 0,-0.51388 0,-0.7708 0,-0.3854 0,-0.51388 -0.3705,-0.3854"
     id="path234"
     style="fill:#ffffff;stroke-width:1.54267" /><path
     class="st0"
     d="m 1567.746,499.40984 c 0.3705,0 0.741,0 0.5557,-0.3854 -0.1852,-0.51385 0.3705,-1.02775 0,-1.54162 0,0 -0.1852,0 -0.3705,0 -0.9262,0.25707 -1.6672,0 -2.7787,-0.25706 0.741,0.77083 0.741,1.54166 0.5558,2.31243 0.5557,0 1.2967,-0.1285 2.0377,-0.1285"
     id="path236"
     style="fill:#ffffff;stroke-width:1.54267" /><g
     id="g250"
     style="fill:#ffffff"
     transform="matrix(1.8524807,0,0,1.2846865,916.04331,47.970991)">
	<defs
   id="defs239">
		<path
   id="SVGID_27_"
   d="m 376.8,390.3 c -0.1,0.1 -0.2,0.2 -0.4,0.2 0.1,-0.1 0.3,-0.2 0.5,-0.3 0,0.1 0,0.1 -0.1,0.1 m 0,-3.1 c 0,0 0,0 0,0 0,0 0,0 0,0 m 0,0 c -0.1,0 -0.1,-0.1 0,0 -0.1,-0.1 -0.1,0 0,0 m -1.1,-125.7 c -34.4,0.1 -62.3,27.7 -62.7,62.1 v 0.6 c 0.1,34.6 28.1,62.6 62.7,62.7 34.6,0 62.7,-28.1 62.7,-62.7 0,-34.3 -27.5,-62.1 -61.6,-62.7 z m 0,0 c -0.2,0 -0.4,0 -0.6,-0.1 0.3,0.1 0.5,0.1 0.6,0.1 m -1.4,-0.6 c -0.1,-0.1 -0.2,-0.2 -0.2,-0.3 0,0.2 0.1,0.3 0.2,0.3" />
	</defs>
	<clipPath
   id="SVGID_28_">
		<use
   xlink:href="#SVGID_27_"
   style="overflow:visible"
   id="use241"
   x="0"
   y="0"
   width="100%"
   height="100%" />
	</clipPath>
	<path
   class="st14"
   d="m 416.7,277.9 c 0.5,-0.1 0.9,0.1 1.4,0.3 -0.3,-0.6 -0.4,-1 -0.3,-1.5 0,-0.1 0,-0.3 -0.2,-0.3 -0.4,0 -0.8,0 -1.1,0.2 -0.2,0.1 0,0.5 -0.1,0.8 0,0.1 0,0.1 0,0.2 -0.1,0.2 0,0.3 0.3,0.3"
   clip-path="url(#SVGID_28_)"
   id="path244"
   style="fill:#ffffff" />
	<path
   class="st14"
   d="m 349.8,363.4 c -0.5,0 -0.8,0.3 -0.7,0.8 0.2,0.7 0.8,0.1 1.2,0.3 -0.3,-0.3 0.3,-1 -0.5,-1.1"
   clip-path="url(#SVGID_28_)"
   id="path246"
   style="fill:#ffffff" />
	<path
   class="st14"
   d="m 424.6,303.5 c -0.3,0 -0.5,-0.2 -0.5,-0.5 0,-0.1 0.1,-0.2 0.1,-0.2 -1.4,-3.1 -3.1,-6.1 -5,-8.9 -0.6,-0.1 -1,-0.5 -1,-1.2 0,0 0,-0.1 0,-0.1 -0.3,-0.4 -0.6,-0.8 -0.9,-1.1 -0.2,0.1 -0.4,0.1 -0.6,0.1 -0.8,0 -1.5,-0.7 -1.4,-1.5 0,-0.3 0.1,-0.5 0.3,-0.7 -0.1,-0.2 -0.3,-0.3 -0.4,-0.4 -0.3,0.2 -0.6,0.3 -0.9,0.3 -0.9,-0.1 -1.6,-0.9 -1.6,-1.7 0,-0.3 0.2,-0.6 0.4,-0.9 -0.1,-0.1 -0.1,-0.1 -0.2,-0.2 -0.4,0.3 -0.8,0.4 -1.4,0.4 -0.2,0 -0.3,0 -0.6,-0.1 0.1,0.6 0.1,1.2 -0.1,1.8 1.3,-0.2 2,0.1 2.3,0.9 0.3,0.7 0.1,1.5 -0.4,2 -0.6,0.5 -1.4,0.6 -2.1,0.2 -0.7,-0.4 -0.9,-1.2 -0.6,-2.3 -0.6,0.2 -1.2,0.2 -1.9,-0.1 0.3,0.8 0.2,1.4 -0.2,2 0.5,-0.2 1.1,-0.4 1.6,-0.1 0.9,0.4 1.3,1.3 1,2.2 -0.3,0.9 -1.2,1.3 -2.1,1.1 -0.9,-0.3 -1.4,-1.2 -1.1,-2.2 0.1,-0.2 0.1,-0.3 0.2,-0.5 -0.5,0.3 -0.9,0.4 -1.5,0.3 -0.2,-0.1 -0.3,0 -0.3,0.3 0.1,0.2 0,0.5 0,0.8 0.2,0.2 0.4,0.3 0.6,0.5 0.5,0 1,0.1 1.4,0.6 0.3,0.4 0.5,0.8 0.4,1.3 0,0 0,0 0,0.1 0.3,0.3 0.5,0.6 0.8,0.8 0.1,0 0.1,0 0.2,0 0.8,0 1.5,0.8 1.5,1.6 0,0.2 0,0.3 -0.1,0.5 0.2,0.3 0.4,0.6 0.7,0.9 0.2,-0.1 0.3,-0.1 0.5,-0.1 0.7,0 1.3,0.6 1.3,1.3 0,0.4 -0.2,0.7 -0.4,1 0.3,0.4 0.5,0.9 0.8,1.3 0.2,-0.4 0.5,-0.7 0.9,-0.7 0.6,0 1.1,0.5 1.1,1.1 0,0.6 -0.5,1.1 -1.1,1.1 -0.1,0 -0.1,-0.1 -0.2,-0.1 3.2,6 5,12.9 5,20.1 0,23.9 -19.4,43.4 -43.4,43.4 -0.8,0 -1.6,-0.1 -2.4,-0.1 0.2,0.1 0.3,0.2 0.3,0.4 0,0.4 -0.2,0.6 -0.6,0.6 -0.4,0 -0.5,-0.2 -0.6,-0.5 0,-0.3 0.2,-0.5 0.4,-0.6 -2.4,-0.2 -4.7,-0.5 -6.9,-1 -0.2,0.2 -0.5,0.4 -0.8,0.4 -0.5,0 -0.9,-0.4 -1,-0.8 -1.2,-0.3 -2.4,-0.7 -3.5,-1.1 0.4,0.2 0.6,0.6 0.7,1 0.1,0.8 -0.5,1.4 -1.2,1.4 -0.8,0.1 -1.4,-0.5 -1.4,-1.2 -0.1,-0.8 0.5,-1.4 1.2,-1.4 0.1,0 0.2,0 0.4,0 -0.5,-0.2 -1,-0.3 -1.5,-0.6 -0.2,0.6 -0.8,1 -1.4,1 -0.9,0 -1.6,-0.6 -1.6,-1.5 0,-0.3 0.1,-0.6 0.2,-0.8 -0.1,0 -0.2,-0.1 -0.3,-0.1 -0.5,0.3 -1.1,0.4 -1.8,0.3 0.2,0.8 0.2,1.5 -0.3,2.2 -0.6,0.6 -1.3,0.7 -2.1,0.6 0.3,0.8 0.2,1.5 -0.2,2.1 0.5,-0.2 0.9,-0.5 1.5,-0.4 1,0.3 1.5,1.2 1.3,2.1 -0.3,0.9 -1.2,1.5 -2.1,1.2 -0.9,-0.3 -1.4,-1.3 -1.1,-2.2 0.1,-0.2 0.1,-0.3 0.2,-0.5 -0.4,0.4 -0.9,0.6 -1.5,0.5 -0.3,0 -0.4,0 -0.3,0.3 0.1,0.4 0,0.8 -0.1,1.3 0,0 0.1,0 0.1,0.1 0.7,-0.2 1.4,-0.2 1.9,0.3 0.3,0.3 0.4,0.6 0.5,1 1.6,0.8 3.3,1.6 5.1,2.3 0.1,-0.5 0.5,-1 1.1,-1 0.6,0 1.2,0.5 1.2,1.1 0,0.3 -0.1,0.5 -0.2,0.7 2,0.7 4.1,1.3 6.3,1.7 0,0 0,0 0,-0.1 0,-0.5 0.2,-0.7 0.7,-0.7 0.4,0 0.7,0.2 0.7,0.6 0,0.1 -0.1,0.2 -0.1,0.3 3.1,0.6 6.2,0.9 9.5,0.9 14.7,0 27.9,-5.9 37.5,-15.6 9.6,-9.6 15.5,-22.9 15.5,-37.5 -0.2,-7.7 -1.7,-14.7 -4.4,-21.1 m -10.3,-12.3 c 0.8,0 1.4,0.7 1.4,1.5 0,0.8 -0.6,1.5 -1.5,1.5 -0.8,0 -1.5,-0.7 -1.5,-1.5 0.1,-0.9 0.7,-1.5 1.6,-1.5 m -2.7,5.5 c -0.8,0 -1.5,-0.6 -1.5,-1.5 0,-0.9 0.6,-1.5 1.5,-1.5 0.8,0 1.5,0.6 1.5,1.5 0,0.9 -0.6,1.6 -1.5,1.5 m 2.7,2.5 c -0.7,0 -1.3,-0.6 -1.3,-1.3 0,-0.7 0.7,-1.3 1.3,-1.3 0.7,0 1.3,0.6 1.3,1.3 -0.1,0.6 -0.7,1.2 -1.3,1.3 m 2.5,7.2 c -0.5,0 -0.8,-0.4 -0.8,-0.8 0,-0.4 0.4,-0.8 0.9,-0.8 0.5,0 0.7,0.3 0.8,0.8 -0.1,0.5 -0.4,0.9 -0.9,0.8 m 0,-4.9 c -0.6,0 -1,-0.5 -1,-1 0,-0.6 0.5,-1.1 1.1,-1.1 0.6,0 1,0.5 1,1 0,0.6 -0.5,1.1 -1.1,1.1 m 0.1,-5 c -0.7,0 -1.3,-0.5 -1.3,-1.2 0,-0.7 0.5,-1.3 1.3,-1.3 0.7,0 1.2,0.5 1.2,1.2 0,0.7 -0.5,1.3 -1.2,1.3 m -63.8,69.8 c 0,-0.9 0.7,-1.7 1.6,-1.7 0.9,0 1.7,0.7 1.7,1.6 0,0.9 -0.7,1.7 -1.6,1.7 -0.8,0 -1.7,-0.8 -1.7,-1.6 m 2,6.5 c -0.8,0 -1.5,-0.6 -1.5,-1.4 0,-0.8 0.6,-1.5 1.4,-1.5 0.8,0 1.5,0.6 1.5,1.4 0,0.8 -0.6,1.5 -1.4,1.5 m 2.5,-2.7 c -0.7,0 -1.4,-0.6 -1.5,-1.3 -0.1,-0.7 0.5,-1.4 1.3,-1.5 0.8,-0.1 1.5,0.6 1.5,1.3 0,0.8 -0.6,1.4 -1.3,1.5 m 2.6,2.2 c -0.6,0 -1.2,-0.5 -1.2,-1.1 0,-0.6 0.5,-1.2 1.1,-1.2 0.6,0 1.2,0.5 1.2,1.2 0.1,0.5 -0.5,1.1 -1.1,1.1 m 1.3,-3.9 c 0,-0.6 0.5,-1.1 1.1,-1.1 0.6,0 1.2,0.5 1.2,1.1 0,0.6 -0.5,1.1 -1.1,1.1 -0.6,0.1 -1.2,-0.5 -1.2,-1.1 m 1.5,6.1 c -0.5,0 -0.9,-0.4 -1,-0.9 0,-0.5 0.4,-0.9 0.8,-1 0.5,0 1,0.4 1,0.9 0.1,0.5 -0.4,1 -0.8,1 m 2.4,-2.7 c -0.4,0 -0.9,-0.4 -0.9,-0.8 0,-0.5 0.4,-0.9 0.9,-1 0.4,0 0.9,0.4 0.9,0.8 0,0.5 -0.4,1 -0.9,1 m 1.6,-3.6 c 0,-0.5 0.3,-0.9 0.8,-0.9 0.5,0 0.9,0.3 0.9,0.8 0,0.5 -0.3,0.9 -0.8,0.9 -0.5,0.1 -0.9,-0.3 -0.9,-0.8 m 1.1,5.8 c -0.4,0 -0.7,-0.2 -0.7,-0.6 0,-0.4 0.2,-0.6 0.6,-0.7 0.4,0 0.7,0.2 0.7,0.6 0.1,0.4 -0.2,0.7 -0.6,0.7 m 1.8,-3.3 c 0,-0.4 0.2,-0.6 0.6,-0.6 0.4,0 0.7,0.2 0.7,0.6 0,0.4 -0.2,0.6 -0.6,0.6 -0.4,0 -0.6,-0.3 -0.7,-0.6 m 1,5.5 c -0.3,0 -0.4,-0.1 -0.5,-0.4 0,-0.2 0.1,-0.4 0.3,-0.4 0.2,0 0.4,0.1 0.4,0.3 0.2,0.3 0,0.5 -0.2,0.5 m 2.4,-2.7 c -0.2,0 -0.4,-0.1 -0.4,-0.4 0,-0.2 0.1,-0.4 0.3,-0.4 0.2,0 0.4,0.1 0.4,0.3 0.1,0.3 0,0.4 -0.3,0.5 m 2.1,-3.1 c 0,-0.2 0.2,-0.3 0.3,-0.4 0.3,0 0.4,0.1 0.4,0.4 0,0.3 -0.1,0.4 -0.4,0.4 -0.2,-0.1 -0.3,-0.2 -0.3,-0.4 m 0.6,5.3 c -0.1,0 -0.2,-0.1 -0.2,-0.2 0,-0.1 0.1,-0.2 0.2,-0.2 0.1,0 0.2,0.1 0.2,0.2 0,0.2 -0.1,0.3 -0.2,0.2 m 43.9,-67.5 c -0.1,0.3 -0.2,0.5 -0.5,0.5 -0.2,0 -0.3,-0.1 -0.4,-0.2 -0.1,-0.1 -0.2,-0.2 -0.2,-0.3 0,-0.4 0.2,-0.5 0.5,-0.6 0.4,0.1 0.7,0.2 0.6,0.6 0.1,0 0,0 0,0 m -0.5,-4.4 c -0.5,-0.1 -0.8,-0.3 -0.8,-0.8 0,-0.4 0.3,-0.8 0.8,-0.8 0.4,0 0.8,0.4 0.8,0.8 0,0.5 -0.3,0.8 -0.8,0.8 m 0,-4.9 c -0.5,0 -1,-0.5 -1,-1.1 0,-0.5 0.6,-1 1.1,-1 0.5,0 1,0.5 1,1 -0.1,0.6 -0.6,1.1 -1.1,1.1 m 2.6,7.2 c -0.3,0 -0.5,-0.2 -0.5,-0.6 0,-0.3 0.2,-0.5 0.5,-0.5 0.3,0 0.5,0.2 0.5,0.5 0,0.4 -0.2,0.7 -0.5,0.6 m 0,-4.9 c -0.5,0 -0.8,-0.3 -0.7,-0.8 0,-0.4 0.3,-0.7 0.8,-0.7 0.5,0 0.7,0.3 0.8,0.8 -0.2,0.4 -0.5,0.7 -0.9,0.7 m 2.6,6.7 c 0,-0.1 0.1,-0.2 0.2,-0.2 0.1,0 0.1,0.1 0.1,0.2 0,0.1 -0.1,0.1 -0.2,0.2 -0.1,-0.1 -0.1,-0.1 -0.1,-0.2"
   clip-path="url(#SVGID_28_)"
   id="path248"
   style="fill:#ffffff" />
</g><path
     class="st0"
     d="m 1564.041,509.04499 c -0.741,-0.38537 -1.2967,-0.64233 -2.0377,-1.02773 -0.3705,0.1285 0,0.3854 0,0.51388 -0.3705,1.1562 0.741,0.7708 1.482,0.64232 0.3705,0.1285 0.3705,0 0.5557,-0.1285"
     id="path252"
     style="fill:#ffffff;stroke-width:1.54267" /><g
     id="g262"
     style="fill:#ffffff"
     transform="matrix(1.8524807,0,0,1.2846865,916.04331,47.970991)">
	<defs
   id="defs255">
		<path
   id="SVGID_29_"
   d="m 376.8,390.3 c -0.1,0.1 -0.2,0.2 -0.4,0.2 0.1,-0.1 0.3,-0.2 0.5,-0.3 0,0.1 0,0.1 -0.1,0.1 m 0,-3.1 c 0,0 0,0 0,0 0,0 0,0 0,0 m 0,0 c -0.1,0 -0.1,-0.1 0,0 -0.1,-0.1 -0.1,0 0,0 m -1.1,-125.7 c -34.4,0.1 -62.3,27.7 -62.7,62.1 v 0.6 c 0.1,34.6 28.1,62.6 62.7,62.7 34.6,0 62.7,-28.1 62.7,-62.7 0,-34.3 -27.5,-62.1 -61.6,-62.7 z m 0,0 c -0.2,0 -0.4,0 -0.6,-0.1 0.3,0.1 0.5,0.1 0.6,0.1 m -1.4,-0.6 c -0.1,-0.1 -0.2,-0.2 -0.2,-0.3 0,0.2 0.1,0.3 0.2,0.3" />
	</defs>
	<clipPath
   id="SVGID_30_">
		<use
   xlink:href="#SVGID_29_"
   style="overflow:visible"
   id="use257"
   x="0"
   y="0"
   width="100%"
   height="100%" />
	</clipPath>
	<path
   class="st15"
   d="m 349.7,353.8 c -0.1,-0.4 -0.1,-0.8 0.1,-1.3 -1,0.3 -1.9,0.1 -2.4,-0.9 -0.3,-0.7 -0.2,-1.3 0.2,-1.9 0.6,-0.7 1.4,-0.8 2.4,-0.4 -0.4,-0.9 -0.5,-1.6 0,-2.3 0.3,-0.4 0.7,-0.6 1.2,-0.6 -0.3,-0.3 -0.6,-0.7 -0.9,-1 0,0.1 0.1,0.2 0.1,0.4 0,0.9 -0.8,1.6 -1.6,1.6 -0.9,0 -1.5,-0.7 -1.5,-1.6 0,-0.9 0.8,-1.6 1.6,-1.6 0.2,0 0.4,0.1 0.6,0.2 -0.7,-0.9 -1.3,-1.8 -1.9,-2.8 -0.2,-0.2 -0.3,-0.3 -0.3,-0.5 -0.3,-0.6 -0.7,-1.2 -1,-1.8 -0.1,0.1 -0.3,0.1 -0.4,0.1 -0.6,0 -1.2,-0.6 -1.2,-1.2 0,-0.4 0.3,-0.8 0.6,-1 -1.7,-4 -2.6,-8.3 -2.6,-12.9 0,-18.3 14.8,-33.2 33.1,-33.2 2.3,0 4.5,0.2 6.7,0.7 0.2,-0.2 0.5,-0.3 0.8,-0.3 0.5,0 1,0.3 1.1,0.8 0.9,0.2 1.7,0.5 2.6,0.8 0,-0.1 -0.1,-0.2 -0.1,-0.3 0,-0.8 0.7,-1.5 1.5,-1.5 0.8,0 1.5,0.7 1.5,1.5 0,0.5 -0.3,1 -0.7,1.2 0.1,0.1 0.3,0.1 0.4,0.2 0,0 0,0 0,0 0.6,-0.7 1.4,-0.7 2.4,-0.3 -0.4,-0.9 -0.4,-1.7 0.2,-2.4 0.6,-0.7 1.4,-0.7 2.3,-0.4 -0.3,-0.9 -0.3,-1.7 0.4,-2.4 0.7,-0.6 1.4,-0.6 2.3,-0.2 -0.2,-0.5 -0.3,-1 -0.2,-1.5 -0.3,-0.2 -0.7,-0.4 -1,-0.6 -0.4,0 -0.7,-0.2 -1,-0.5 -0.9,-0.5 -1.8,-0.9 -2.7,-1.3 0,0.1 0,0.1 0,0.2 0,0.7 -0.6,1.3 -1.3,1.3 -0.8,0 -1.4,-0.6 -1.4,-1.3 0,-0.4 0.2,-0.8 0.5,-1 -0.5,-0.2 -1,-0.4 -1.6,-0.6 -0.1,0 -0.1,0.1 -0.1,0.1 -0.3,0 -0.6,-0.1 -0.8,-0.3 -1.2,-0.3 -2.4,-0.7 -3.7,-0.9 0,0.1 0.1,0.1 0.1,0.2 0,0.5 -0.3,0.8 -0.8,0.8 -0.5,0 -0.8,-0.3 -0.8,-0.8 0,-0.2 0.1,-0.2 0.1,-0.3 -2.2,-0.4 -4.5,-0.6 -6.9,-0.6 -11.8,0 -22.5,4.8 -30.3,12.6 -7.8,7.8 -12.5,18.5 -12.5,30.3 0,7.6 2,14.8 5.5,21 0.5,0 1,0.4 1,1 0,0.2 -0.1,0.3 -0.2,0.5 0.3,0.4 0.5,0.9 0.8,1.3 0.2,-0.3 0.6,-0.5 0.9,-0.5 0.7,-0.1 1.4,0.5 1.4,1.2 0,0.6 -0.4,1.1 -0.9,1.3 0.3,0.4 0.5,0.7 0.8,1.1 0.1,-0.7 0.7,-1.3 1.4,-1.4 0.8,0 1.6,0.7 1.6,1.5 0,0.8 -0.7,1.5 -1.5,1.6 0,0 0,0 -0.1,0 0.3,0.4 0.7,0.8 1,1.1 0,-0.1 0,-0.2 0,-0.3 0,-1 0.8,-1.7 1.9,-1.6 1.1,0 1.6,0.9 1.6,2.4 0.4,-0.1 0.9,-0.3 1.3,-0.2 0.5,-0.1 0.4,-0.3 0.4,-0.5 m 44,-67.9 c 0.9,0 1.6,0.8 1.5,1.7 0,0.9 -0.8,1.5 -1.6,1.5 -0.9,0 -1.6,-0.8 -1.6,-1.6 0,-1 0.8,-1.7 1.7,-1.6 m -2.8,2.6 c 0.8,0 1.6,0.7 1.6,1.6 0,0.8 -0.8,1.6 -1.6,1.6 -0.8,0 -1.6,-0.8 -1.5,-1.6 -0.1,-0.9 0.7,-1.6 1.5,-1.6 m -2.5,-2.3 c 0.7,0 1.3,0.6 1.3,1.3 0,0.7 -0.6,1.3 -1.3,1.4 -0.7,0 -1.3,-0.6 -1.3,-1.3 0,-0.8 0.6,-1.4 1.3,-1.4 m -2.6,-2.4 c 0.6,0 1.1,0.5 1.1,1.1 0,0.6 -0.5,1.1 -1.1,1.1 -0.6,0 -1.1,-0.5 -1.1,-1.1 0.1,-0.6 0.5,-1.1 1.1,-1.1 m -0.1,5 c 0.7,0 1.3,0.6 1.3,1.3 0,0.7 -0.6,1.3 -1.3,1.3 -0.7,0 -1.3,-0.6 -1.3,-1.3 0,-0.7 0.6,-1.3 1.3,-1.3 m -2.4,-2.4 c 0.6,0 1.1,0.5 1,1.1 0,0.5 -0.5,1 -1.1,1 -0.6,0 -1.1,-0.5 -1,-1.1 0,-0.5 0.5,-1 1.1,-1 m -2.6,-2.3 c 0.4,0 0.8,0.4 0.8,0.9 -0.1,0.4 -0.3,0.7 -0.8,0.7 -0.4,0 -0.8,-0.4 -0.8,-0.8 -0.1,-0.5 0.3,-0.8 0.8,-0.8 m -0.1,5 c 0.5,0 1,0.6 1,1.1 0,0.5 -0.6,1 -1.1,0.9 -0.5,0 -1,-0.6 -1,-1.1 0.1,-0.5 0.6,-1 1.1,-0.9 m -2.6,-7.4 c 0.4,0 0.6,0.2 0.6,0.5 0,0.4 -0.2,0.6 -0.5,0.6 -0.4,0 -0.6,-0.2 -0.6,-0.5 0,-0.3 0.2,-0.5 0.5,-0.6 m 0.1,5 c 0.4,0 0.7,0.3 0.8,0.7 0,0.5 -0.3,0.7 -0.7,0.8 -0.5,-0.1 -0.8,-0.3 -0.8,-0.8 -0.1,-0.4 0.2,-0.7 0.7,-0.7 m -40,55.2 c -0.5,0 -0.9,-0.3 -0.9,-0.8 0,-0.5 0.3,-0.9 0.8,-0.9 0.5,0 0.9,0.3 0.9,0.8 0.1,0.5 -0.3,0.9 -0.8,0.9 m 1.7,-3.8 c 0.1,-0.3 0.3,-0.6 0.7,-0.6 0.3,0 0.5,0.1 0.7,0.3 0.2,0.1 0.3,0.3 0.3,0.6 0,0.5 -0.4,0.9 -0.9,0.9 -0.4,0 -0.9,-0.4 -0.9,-0.8 -0.1,-0.2 0,-0.3 0.1,-0.4 m 1.1,6.5 c -0.6,0 -1.1,-0.4 -1.2,-1 0,-0.6 0.4,-1.1 1,-1.1 0.6,0 1.1,0.4 1.2,1 0,0.6 -0.4,1.1 -1,1.1 m 5,-2.7 c 0.8,0 1.4,0.5 1.4,1.3 0,0.8 -0.5,1.4 -1.3,1.4 -0.8,0 -1.4,-0.5 -1.4,-1.3 0,-0.7 0.5,-1.3 1.3,-1.4 m -2.6,-2.2 c 0.6,0 1.1,0.6 1.1,1.1 0,0.6 -0.6,1.2 -1.2,1.2 -0.6,0 -1.1,-0.6 -1.1,-1.1 0,-0.7 0.6,-1.3 1.2,-1.2 m 0.3,7.6 c -0.8,0 -1.4,-0.6 -1.4,-1.3 0,-0.7 0.5,-1.3 1.3,-1.3 0.8,0 1.4,0.5 1.4,1.3 0,0.7 -0.6,1.3 -1.3,1.3 m 2.7,2.7 c -0.8,0 -1.6,-0.7 -1.6,-1.5 0,-0.8 0.7,-1.6 1.5,-1.6 0.8,0 1.6,0.7 1.6,1.5 0,0.8 -0.7,1.6 -1.5,1.6"
   clip-path="url(#SVGID_30_)"
   id="path260"
   style="fill:#ffffff" />
</g><path
     class="st0"
     d="m 1558.6688,518.42324 c -1.1115,0 -0.5557,0.64232 -0.5557,0.89925 0.1852,0.77083 1.1115,0.38542 1.6672,0.38542 0.741,0.1285 0.1852,-0.38542 0.1852,-0.5139 0.3705,-1.02772 -0.3705,-0.77077 -1.2967,-0.77077"
     id="path264"
     style="fill:#ffffff;stroke-width:1.54267" /><path
     class="st0"
     d="m 1735.2102,464.46639 c 0,14.77388 -5.3722,28.64852 -15.0051,40.85302 3.3345,10.53443 8.7067,18.4995 16.3019,23.7667 9.0771,6.29498 21.4888,9.50668 37.2348,9.50668 9.4477,0 17.5986,-0.89928 24.638,-2.4409 7.0395,-1.6701 11.6707,-3.85408 14.0789,-6.68038 0.1852,1.54163 0.3705,2.95478 0.5557,4.23948 0.1852,1.28467 0.1852,2.4409 0.1852,3.46865 0,8.222 -2.5935,14.51697 -7.9656,18.75642 -5.3722,4.23946 -13.7084,6.42343 -25.0085,6.42343 -7.41,0 -15.5609,-0.64235 -24.4528,-1.79855 -8.8919,-1.1562 -16.3018,-2.69785 -22.0445,-4.36795 l -6.8542,21.58275 c 8.5214,2.69785 17.7838,4.62488 28.1577,6.03802 10.3739,1.28468 20.5626,1.92703 30.7512,1.92703 24.2675,0 43.5333,-4.23947 57.7974,-12.71837 14.2641,-8.47895 21.3035,-20.42653 21.3035,-35.84278 V 384.04499 h -55.9449 v 3.7256 c -5.0017,-2.0555 -10.0034,-3.59713 -15.0051,-4.4964 -5.1869,-0.89928 -10.9296,-1.2847 -17.5985,-1.2847 -13.7084,0 -25.1938,2.9548 -34.6414,8.7359 -9.4477,5.90955 -16.3019,14.00307 -20.3773,24.28055 -0.9263,2.0555 -1.6673,4.4964 -2.223,7.19425 10.1886,12.58992 16.1166,26.84995 16.1166,42.2662 m 73.914,48.3042 c -2.4083,1.2847 -4.8165,2.18397 -7.2247,2.82632 -2.4082,0.51388 -5.5575,0.89925 -9.4477,0.89925 -5.1869,0 -9.0771,-1.02772 -11.8558,-3.2117 -2.7788,-2.18397 -4.446,-5.52415 -5.187,-10.40597 -0.741,-5.01025 -1.2967,-11.30523 -1.8525,-18.88488 -0.3705,-7.45117 -0.741,-15.41622 -0.741,-24.02365 0,-5.39567 0.1852,-11.56217 0.5558,-18.49947 0.3705,-6.93733 1.1115,-13.4892 1.8525,-19.52723 0.741,-5.90957 2.7787,-9.8921 5.5574,-11.9476 2.964,-2.0555 7.5952,-3.08322 13.7084,-3.08322 2.2229,0 4.8164,0.25675 7.5951,0.64232 2.964,0.3854 5.187,1.02775 6.8542,1.67008 v 103.54575 z"
     id="path266"
     style="fill:#ffffff;stroke-width:1.54267" /><path
     class="st0"
     d="m 1501.9829,502.75001 h -24.638 c -0.741,6.80888 -2.4082,11.1768 -4.8164,13.2323 -2.4083,2.0555 -6.1132,3.08325 -10.9297,3.08325 -7.9656,0 -13.1526,-3.34017 -15.5608,-9.89209 -2.4082,-6.55188 -3.5197,-22.09663 -3.5197,-46.50565 0,-21.3258 1.1115,-35.9712 3.1492,-44.06473 2.0377,-8.09353 7.0394,-12.20452 15.1903,-12.20452 4.8165,0 8.3362,1.41312 10.3739,4.23945 2.0378,2.82629 3.1493,8.9928 3.1493,18.62795 h 25.7494 c 5.0017,-7.70813 11.6707,-14.77388 19.6363,-21.06885 -2.7787,-5.78111 -6.6689,-10.66293 -12.0411,-14.51698 -10.9296,-7.83657 -26.4905,-11.69065 -46.8678,-11.69065 -25.5642,0 -44.6447,6.80885 -57.2416,20.29807 -12.5969,13.61768 -19.0806,33.65878 -19.0806,60.38025 0,26.84995 6.1132,47.01953 18.3396,60.50875 12.2264,13.61768 30.1954,20.29805 53.7219,20.29805 20.9331,0 36.6792,-3.3402 47.053,-10.02054 6.1132,-3.85408 10.3739,-8.99283 12.9674,-15.41626 -5.9279,-4.62487 -10.7444,-9.76362 -14.6346,-15.2878"
     id="path268"
     style="fill:#ffffff;stroke-width:1.54267" /><path
     class="st0"
     d="m 1976.7737,369.01416 c 0.741,-1.28467 1.8525,-2.31242 3.3345,-3.2117 1.2967,-0.89929 2.964,-1.54164 4.8164,-2.0555 1.8525,-0.51387 3.705,-0.77082 5.7427,-0.77082 2.0378,0 3.8902,0.25705 5.7427,0.77082 1.8525,0.51386 3.3345,1.15621 4.8165,2.0555 1.2967,0.89928 2.4082,1.92703 3.3344,3.2117 0.741,1.28468 1.2968,2.5694 1.2968,4.111 0,1.54163 -0.3705,2.95478 -1.2968,4.23948 -0.741,1.28467 -1.8524,2.31242 -3.3344,3.2117 -1.2968,0.8993 -2.964,1.54162 -4.8165,2.0555 -1.8525,0.5139 -3.7049,0.64235 -5.7427,0.64235 -2.0377,0 -3.8902,-0.25705 -5.7427,-0.64235 -1.8524,-0.51387 -3.3344,-1.1562 -4.8164,-2.0555 -1.2967,-0.89928 -2.4082,-1.92703 -3.3345,-3.2117 -0.741,-1.2847 -1.2967,-2.69785 -1.2967,-4.23948 0.1852,-1.41314 0.5557,-2.82632 1.2967,-4.111 m 3.705,7.45118 c 0.5557,1.02778 1.2967,1.79857 2.4082,2.5694 0.9263,0.77077 2.223,1.28467 3.5197,1.67007 1.2968,0.38543 2.7787,0.64235 4.2607,0.64235 1.482,0 2.964,-0.25705 4.2607,-0.64235 1.2968,-0.3854 2.5935,-0.8993 3.5197,-1.67007 0.9263,-0.77083 1.8525,-1.54162 2.4083,-2.5694 0.5557,-1.02773 0.9262,-2.0555 0.9262,-3.2117 0,-1.15623 -0.3705,-2.18398 -0.9262,-3.21173 -0.5558,-0.89927 -1.2968,-1.79857 -2.4083,-2.4409 -0.9262,-0.64235 -2.2229,-1.2847 -3.5197,-1.67007 -1.2967,-0.38543 -2.7787,-0.64235 -4.2607,-0.64235 -1.482,0 -2.9639,0.25705 -4.2607,0.64235 -1.2967,0.38537 -2.5934,0.89925 -3.5197,1.67007 -0.9262,0.64233 -1.8525,1.54163 -2.4082,2.4409 -0.5558,1.02775 -0.9263,2.0555 -0.9263,3.21173 0,1.1562 0.3705,2.18397 0.9263,3.2117 m 10.3739,-8.86433 c 2.0377,0 3.7049,0.25708 4.8164,0.7708 1.1115,0.51388 1.6673,1.41315 1.6673,2.56938 0,0.5139 -0.1852,1.02775 -0.3705,1.2847 -0.1852,0.3854 -0.5558,0.64235 -0.9263,0.89927 -0.3705,0.25708 -0.9262,0.38543 -1.2967,0.5139 -0.5558,0.1285 -1.1115,0.25675 -1.6672,0.25675 l 4.4459,4.88183 h -3.3345 l -3.8902,-4.88183 h -2.0377 v 4.88183 h -3.1492 v -11.30523 h 5.7427 z m 0,4.75333 c 0.9262,0 1.6672,-0.1285 2.223,-0.25705 0.5557,-0.1285 0.9262,-0.64233 0.9262,-1.28468 0,-0.25705 -0.1852,-0.51387 -0.3705,-0.77082 -0.1852,-0.1285 -0.5557,-0.25705 -0.741,-0.38538 -0.3705,-0.1285 -0.741,-0.1285 -1.1115,-0.25707 -0.3705,0 -0.741,0 -1.1115,0 h -2.7787 v 2.95477 z"
     id="path270"
     style="fill:#ffffff;stroke-width:1.54267" /></g>
</svg>
