<svg id="Layer_1" data-name="Layer 1" xmlns="http://www.w3.org/2000/svg" viewBox="0 0 736.08 68.19"><defs><style>.cls-1{fill:#fff;}</style></defs><path class="cls-1" d="M710.12,99.56c0-5,.11-9.93-.06-14.83a4.65,4.65,0,0,0-3-4.62,6.77,6.77,0,0,0-6.77,1.18,7.17,7.17,0,0,0-2.76,5.4c-.16,4.2-.09,8.4-.11,12.59,0,.07.06.14.11.23a1,1,0,0,0,.32.08c3.71.21,5.47,3.06,4,6.53a3.4,3.4,0,0,1-3.37,2.08c-4,.07-8,.11-12,0-2.73-.08-3.79-1.55-3.72-4.64.06-2.54,1.39-3.87,4-4h.79V80.86a2.6,2.6,0,0,0-.47-.09c-4,0-4.72-2.79-4.14-5.91a3.07,3.07,0,0,1,3.18-2.59c2.79-.12,5.59-.14,8.39-.08,1.66,0,2,.57,2,2.27v1.88l.4.28a2.74,2.74,0,0,1,.25-.66c4.15-5.76,12.66-5.53,16.77-3.41,3.43,1.77,4.93,4.9,5.56,8.5a35.88,35.88,0,0,1,.48,5.48c.07,4.31,0,8.62,0,12.88.16.09.22.16.29.16,4.57,0,4.88,3,4.42,5.92-.28,1.69-1.56,2.68-3.61,2.71-4,.08-7.92.11-11.88,0-2.67-.08-3.93-1.67-3.86-4.46.08-2.64,1.47-4,4.11-4.14Z" transform="translate(-133.64 -54.51)"/><path class="cls-1" d="M631.86,92.44H607.62a13.5,13.5,0,0,1-1.91-.09c-2.14-.29-3-1.28-3.06-3.43A15.87,15.87,0,0,1,610,74.8c5.77-3.93,12.19-4.3,18.76-2.74,8.6,2,14.19,8.62,14.66,17a18.26,18.26,0,0,1-12.21,18.67c-4.77,1.78-9.7,1.83-14.66,1.16a23.35,23.35,0,0,1-9.48-3.16,8.23,8.23,0,0,1-3.52-3.81,4.24,4.24,0,0,1,.78-4.57c1.11-1.07,2.61-1.24,4.35-.43,1,.49,2.06,1.06,3.08,1.61a20.4,20.4,0,0,0,13.32,2.32,9.78,9.78,0,0,0,8.26-8.36ZM628,79.7a13.61,13.61,0,0,0-11,.48,8.19,8.19,0,0,0-4.43,6.15h20.94C632.62,83.22,631,80.81,628,79.7Z" transform="translate(-133.64 -54.51)"/><path class="cls-1" d="M211.19,92.44a9.7,9.7,0,0,0,8.25,8.36,20.37,20.37,0,0,0,13.21-2.27c1.06-.56,2.11-1.15,3.18-1.67a3.59,3.59,0,0,1,4.26.36,3.66,3.66,0,0,1,.92,4.3,9.54,9.54,0,0,1-2.63,3.44c-3,2.4-6.6,3.34-10.31,3.86-5,.71-10,.66-14.89-1.18a18.56,18.56,0,0,1,1.64-35.33c6.42-1.78,12.77-1.64,18.67,1.84a16.13,16.13,0,0,1,8.42,14.4c0,2.63-1,3.68-3.66,3.85-.48,0-1,0-1.44,0H211.19ZM232,86.35a8.06,8.06,0,0,0-4.37-6.15,13.54,13.54,0,0,0-11-.52c-3.06,1.12-4.67,3.54-5.5,6.67Z" transform="translate(-133.64 -54.51)"/><path class="cls-1" d="M445,102.45c0-1.28-.05-2.56,0-3.84.08-1.46.5-2.78,2.1-3.3A4.57,4.57,0,0,1,452,96.52a20,20,0,0,0,3.13,3.41,14.52,14.52,0,0,0,11.54,2.28,5.72,5.72,0,0,0,2.53-1.24,3,3,0,0,0-.88-5.29A45.66,45.66,0,0,0,462,94.32c-2.74-.51-5.52-.89-8.25-1.47a15,15,0,0,1-3.57-1.35,9.26,9.26,0,0,1-5.44-9.34,10.06,10.06,0,0,1,6.59-9.44c3.95-1.68,8.11-1.72,12.27-1.32,2.13.2,4.22.82,6.35,1.17a2.86,2.86,0,0,0,1.46-.33,19,19,0,0,1,1.85-1c2.69-.9,4.57.44,4.62,3.26,0,1.8,0,3.6,0,5.4,0,2.64-2,4.15-4.54,3.25a15.69,15.69,0,0,1-3.59-2.1c-2-1.41-3.95-2.85-6.41-3a30.22,30.22,0,0,0-5.45.27,3.86,3.86,0,0,0-1.61.74A2.94,2.94,0,0,0,455,82,2.45,2.45,0,0,0,457,84.19c2,.41,3.94.64,5.89,1a106.32,106.32,0,0,1,10.42,2.16c4.93,1.47,7.16,4.38,7.37,8.78.26,5.14-2,9.07-6.5,11.15a22.71,22.71,0,0,1-9,1.91,46.41,46.41,0,0,1-12.37-1.2,2.68,2.68,0,0,0-1.31.28,18.69,18.69,0,0,1-3.49,1.07c-1.9.19-2.94-.79-3.08-2.7-.11-1.39,0-2.8,0-4.2Z" transform="translate(-133.64 -54.51)"/><path class="cls-1" d="M297,90.57c-3.2-3.41-6-6.41-8.85-9.38a1.67,1.67,0,0,0-.84-.34,4.7,4.7,0,0,0-.84,0,4.44,4.44,0,0,1-3.91-6.92,3.28,3.28,0,0,1,2.9-1.65c3.95-.07,7.91-.09,11.86,0a2.86,2.86,0,0,1,2.86,2.46,9,9,0,0,1,.18,2.49c-.08,1.38-.53,2.6-2.31,2.94l4,4.7,4.21-4.58c-2-1-2.64-2.67-2.12-5.2.39-1.91,1.34-2.78,3.55-2.84,3.23-.09,6.47-.07,9.71,0,2.55.07,3.74,1.44,3.81,4.1s-1.2,4.52-3.73,4.41c-2.13-.09-3.27.91-4.48,2.3-1.93,2.22-4,4.36-6,6.58,2.82,2.88,5.59,5.64,8.28,8.49a4,4,0,0,0,3,1.49c2.66.08,3.89,1.73,3.79,4.62-.08,2.61-1.38,4-4.06,4s-5.52,0-8.27,0c-.92,0-1.85,0-2.76,0a3,3,0,0,1-3.06-2.55,11.54,11.54,0,0,1,0-3.32c.15-1.2.66-1.55,2.45-2.19L301.69,95l-4.59,5.27c2.57.46,2.75,2.31,2.58,4.59s-1.38,3.38-3.43,3.41c-3.24,0-6.48,0-9.72,0-1.58,0-3.09-.47-3.65-2.19a5.32,5.32,0,0,1,.74-5.43,4.07,4.07,0,0,1,3.3-1.11,1.73,1.73,0,0,0,1.05-.33C291,96.35,294,93.5,297,90.57Z" transform="translate(-133.64 -54.51)"/><path class="cls-1" d="M530.6,82.92c-1.42,0-2.69,0-4,0-3.84,0-5.64-2.63-4.37-6.29a3.34,3.34,0,0,1,3.36-2.23c1.59-.06,3.19,0,5,0V64.25c0-2,.91-3.32,2.87-3.67a12.61,12.61,0,0,1,4,0A2.85,2.85,0,0,1,540,63.18c.2,1.7.22,3.43.25,5.14,0,2,0,3.91,0,6h1.34c3.64,0,7.28,0,10.92,0,4.15,0,5,2.28,4.44,5.74a3.12,3.12,0,0,1-3,2.69,26.87,26.87,0,0,1-3.11.14c-3.48,0-7,0-10.37,0-.11.14-.2.2-.2.26,0,3.88-.16,7.76,0,11.63.2,4.06,2.27,5.77,6.31,5.31a34.8,34.8,0,0,0,5.9-1.45c1.63-.5,3.18-1.3,4.82-1.78a3.84,3.84,0,0,1,4.74,1.8,4,4,0,0,1-.82,5.22,17.78,17.78,0,0,1-7.94,4,29,29,0,0,1-13.76.56c-5.74-1.23-8.77-4.82-8.91-10.7-.11-4.47,0-9-.06-13.43Z" transform="translate(-133.64 -54.51)"/><path class="cls-1" d="M779.21,100.29h12.43l.36-3.55c.33-3.33,1.76-4.47,5.44-3.77a2.65,2.65,0,0,1,2.23,2.51c.16,1.71.19,3.43.2,5.14s0,3.44-.16,5.14-.85,2.22-2.47,2.43a9.48,9.48,0,0,1-1.19,0H771a8,8,0,0,1-1.9-.21,3.52,3.52,0,0,1-2.61-4.73,10.24,10.24,0,0,1,2.22-3.74c5.93-6.38,12-12.67,17.95-19a3.27,3.27,0,0,0,.28-.4H775.2c0,.89,0,1.79,0,2.69-.22,3.33-2.86,5-5.92,3.61a3.52,3.52,0,0,1-1.69-2.1,18.07,18.07,0,0,1-.29-4c0-1.72-.06-3.45,0-5.16.12-2.19.91-2.91,3.08-3,3-.06,5.91-.09,8.87-.09,5.44,0,10.88,0,16.31.11,3.24.08,4.83,2.53,3.65,5.57a10.16,10.16,0,0,1-2.1,3.15c-5.77,6.26-11.59,12.47-17.39,18.7C779.6,99.81,779.46,100,779.21,100.29Z" transform="translate(-133.64 -54.51)"/><path class="cls-1" d="M860.34,68.12c-1.73,0-3.41,0-5.08,0-3.22,0-3.61-2.09-3.18-4.31A2.18,2.18,0,0,1,854.31,62c4.24,0,8.48-.06,12.72,0,1.81,0,2.69,1.15,2.69,3v54.69a2.65,2.65,0,0,1-3,3c-4.07,0-8.15,0-12.23,0-1.66,0-2.54-1-2.58-2.77-.05-2.13.8-3.28,2.54-3.37,1,0,1.92,0,2.87,0h3Z" transform="translate(-133.64 -54.51)"/><path class="cls-1" d="M142.87,68.12v48.4c1.85,0,3.65,0,5.44,0a2.55,2.55,0,0,1,2.74,1.49,3.59,3.59,0,0,1-.29,3.76,2.58,2.58,0,0,1-1.72.88q-6.36.1-12.72,0a2.51,2.51,0,0,1-2.68-2.83V64.89A2.58,2.58,0,0,1,136.4,62c4.16-.06,8.32,0,12.47,0,1.52,0,2.37,1,2.52,2.66s-.58,3-1.92,3.31a7.14,7.14,0,0,1-1.66.16C146.18,68.13,144.55,68.12,142.87,68.12Z" transform="translate(-133.64 -54.51)"/><path class="cls-1" d="M378,99.64V80.76c-1.4,0-2.75,0-4.09,0a13.47,13.47,0,0,1-2.61-.3A2.84,2.84,0,0,1,369,78a10.39,10.39,0,0,1,0-3.1,3,3,0,0,1,3.14-2.61c4.55-.1,9.11-.11,13.67-.06,1.53,0,1.93.58,1.93,2.13v25.3c2.28,0,4.43,0,6.58,0a32.47,32.47,0,0,1,3.82.19A3.18,3.18,0,0,1,401,103a9.48,9.48,0,0,1,0,1.07c0,2.78-1.33,4.12-4.12,4.18-1.68,0-3.36,0-5,0H369.48c-3.75,0-5.32-1.9-4.66-5.62a3.06,3.06,0,0,1,2.88-2.76c2.11-.2,4.23-.17,6.35-.21C375.32,99.62,376.59,99.64,378,99.64Z" transform="translate(-133.64 -54.51)"/><path class="cls-1" d="M386.91,60.88c-.08,1.1-.12,2.22-.27,3.32-.2,1.46-.81,2.21-2.28,2.35a28,28,0,0,1-4.76,0,2.26,2.26,0,0,1-2.22-2.27,62.58,62.58,0,0,1,.25-7.25,2.65,2.65,0,0,1,2.59-2.42,18,18,0,0,1,3.81,0,2.7,2.7,0,0,1,2.6,2.67C386.79,58.47,386.82,59.67,386.91,60.88Z" transform="translate(-133.64 -54.51)"/></svg>